<?xml version="1.0" encoding="UTF-8"?>
<svg version="1.1" xmlns="http://www.w3.org/2000/svg" width="2000" height="1071">
<path d="M0 0 C53.13 0 106.26 0 161 0 C161 6.27 161 12.54 161 19 C143.18 19 125.36 19 107 19 C107.33 87.97 107.66 156.94 108 228 C116.69440389 218.62523772 116.69440389 218.62523772 125.16015625 209.08984375 C128.03984905 205.81885511 131.00354253 202.62496909 133.95556641 199.41943359 C136.48754824 196.66508903 138.99042801 193.8924879 141.4375 191.0625 C145.06144644 186.87967989 148.83255746 182.83728193 152.59521484 178.77978516 C155.84864787 175.26517971 159.03408762 171.70391333 162.16796875 168.08203125 C164.99864261 164.86508207 167.90767016 161.7202932 170.80834961 158.56665039 C175.24236939 153.74396118 179.62525909 148.87650331 184 144 C185.49971128 142.33307353 186.99971321 140.66640851 188.5 139 C189.2425 138.175 189.985 137.35 190.75 136.5 C197.5 129 197.5 129 199.7578125 126.4921875 C201.23292618 124.85260121 202.70691652 123.21200345 204.1796875 121.5703125 C208.30097768 116.9796939 212.44873788 112.41552893 216.625 107.875 C220.18253099 104.00632178 223.68289575 100.09665875 227.125 96.125 C230.01919336 92.84491419 232.99218892 89.63731943 235.95532227 86.41967773 C238.48740116 83.66526572 240.99035268 80.89257501 243.4375 78.0625 C246.01259852 75.08504234 248.66930939 72.19649586 251.35595703 69.3203125 C265.53676207 55.25058316 265.53676207 55.25058316 270.34765625 36.82421875 C269.65896405 31.22956191 268.04224779 26.62332517 263.5625 23.0625 C252.66016117 19.81092526 241.28685589 19.55057834 230 19 C230 12.73 230 6.46 230 0 C277.52 0 325.04 0 374 0 C374 6.27 374 12.54 374 19 C371.9478125 19.15855469 369.895625 19.31710937 367.78125 19.48046875 C332.21977297 22.37037056 311.38616342 34.59149964 288.015625 61.69921875 C285.55519691 64.50773066 283.03023215 67.25460187 280.5 70 C276.87890073 73.9326638 273.31040648 77.90214504 269.80859375 81.94140625 C267.5698875 84.4895665 265.28589788 86.99410593 263 89.5 C259.54424587 93.28934126 256.1347711 97.11083698 252.76953125 100.98046875 C248.46130252 105.89736556 244.05313844 110.72639032 239.671875 115.578125 C237.44394647 118.04854915 235.22092679 120.52328091 233 123 C232.34644531 123.72445312 231.69289062 124.44890625 231.01953125 125.1953125 C230.41496094 125.87335938 229.81039062 126.55140625 229.1875 127.25 C228.40439453 128.12398437 228.40439453 128.12398437 227.60546875 129.015625 C225.5477735 131.55895635 223.78405245 134.26006696 222 137 C222.37584229 137.65145996 222.75168457 138.30291992 223.13891602 138.97412109 C244.00927734 175.14941406 264.87963867 211.32470703 285.75 247.5 C286.36866943 248.57233887 286.98733887 249.64467773 287.62475586 250.74951172 C288.8756448 252.91776264 290.12645852 255.08605697 291.37719727 257.25439453 C294.48798335 262.64717915 297.60004238 268.03922093 300.71484375 273.4296875 C307.53245578 285.23184481 314.32070538 297.04992653 321.06930542 308.89163208 C326.39639574 318.23661668 331.80696937 327.53045081 337.25830078 336.8034668 C340.4633516 342.28050534 343.52451023 347.8004594 346.4375 353.4375 C351.29416607 362.64557389 356.52495814 371.30712552 366.94165039 374.61694336 C375.73423125 376.54551647 384.66520384 376.45631194 393.625 376.625 C395.31382052 376.66325702 397.00262314 376.702313 398.69140625 376.7421875 C402.79416849 376.83881782 406.89678007 376.91904343 411 377 C411 383.27 411 389.54 411 396 C354.57 396 298.14 396 240 396 C240 389.73 240 383.46 240 377 C242.68125 376.896875 245.3625 376.79375 248.125 376.6875 C264.51039152 375.89686701 264.51039152 375.89686701 279 369 C281.39697664 365.50440907 281.38961696 361.92440069 280.7578125 357.77734375 C276.67717266 342.82200908 266.27390576 329.0181257 258.41824341 315.77084351 C254.77476631 309.62646436 251.16179759 303.46445527 247.55343628 297.29940796 C245.78701312 294.28212446 244.01839127 291.26613028 242.25 288.25 C241.54165623 287.04167279 240.83332289 285.83333946 240.125 284.625 C239.774375 284.026875 239.42375 283.42875 239.0625 282.8125 C238 281 236.9375 279.1875 235.875 277.375 C235.52438004 276.77688507 235.17376007 276.17877014 234.81251526 275.56253052 C234.10412584 274.35409852 233.39574165 273.14566346 232.68736267 271.93722534 C230.91743021 268.91787646 229.14740728 265.89858069 227.37719727 262.87939453 C224.17889032 257.42431101 220.98124719 251.96884393 217.78697205 246.51139832 C216.00426119 243.4656707 214.22100768 240.42026107 212.4375 237.375 C212.0882547 236.77863739 211.7390094 236.18227478 211.37918091 235.56784058 C206.09547385 226.54803696 200.77549515 217.55026372 195.4375 208.5625 C190.20684489 199.75520946 185.01817658 190.93037346 180 182 C176.4327081 184.6863259 173.68117276 187.42200407 170.9375 190.9375 C167.44953535 195.29600491 163.81952969 199.43030653 160 203.5 C156.35071596 207.39535463 152.84297848 211.33338914 149.5 215.5 C145.16072656 220.90436782 140.49603585 225.94955123 135.7734375 231.015625 C129.81869144 237.40394977 124.19655381 244.08711391 118.52539062 250.72631836 C117.80125977 251.57335327 117.80125977 251.57335327 117.0625 252.4375 C116.60200791 252.98805557 116.14151583 253.53861115 115.66706944 254.10585022 C114 256 114 256 112.20084286 257.70129395 C107.54140028 262.30858221 106.18786338 265.64677014 106.06559753 272.16648865 C106.08141373 273.19435989 106.09722992 274.22223114 106.11352539 275.28125 C106.09736176 276.93623253 106.09736176 276.93623253 106.08087158 278.62464905 C106.05358997 282.25045512 106.07531724 285.87418899 106.09765625 289.5 C106.08826867 292.02206712 106.07580935 294.54412453 106.06040955 297.06616211 C106.03148812 303.01241142 106.03340936 308.95813746 106.05048412 314.90438557 C106.06819915 321.67844114 106.04619375 328.45218953 106.02097714 335.2262001 C105.97002504 349.15090288 105.96854644 363.0752568 106 377 C106.99265114 376.99666908 106.99265114 376.99666908 108.00535583 376.99327087 C114.8666022 376.97122035 121.72783857 376.95609438 128.58911133 376.94506836 C131.15291757 376.9400263 133.71672091 376.93319286 136.28051758 376.92456055 C139.95655021 376.91248936 143.63254498 376.90677058 147.30859375 376.90234375 C149.03981728 376.89460182 149.03981728 376.89460182 150.80601501 376.88670349 C151.86703934 376.88662796 152.92806366 376.88655243 154.02124023 376.88647461 C154.96055893 376.884254 155.89987762 376.88203339 156.86766052 376.87974548 C159 377 159 377 160 378 C160 383.94 160 389.88 160 396 C107.2 396 54.4 396 0 396 C0 389.73 0 383.46 0 377 C17.49 377 34.98 377 53 377 C53 258.86 53 140.72 53 19 C35.51 19 18.02 19 0 19 C0 12.73 0 6.46 0 0 Z " fill="#EBDE8C" transform="translate(20,375)"/>
<path d="M0 0 C8.48114336 4.70583817 16.19314202 10.35846859 20.9296875 19.0078125 C21.60518967 21.85993279 21.62800635 24.46270721 21.4921875 27.3828125 C22.1315625 27.1765625 22.7709375 26.9703125 23.4296875 26.7578125 C29.03819648 26.0710563 33.85406158 27.51738748 38.8046875 30.1328125 C42.92936629 33.58603195 45.35154161 37.14261751 46.4921875 42.3828125 C45.91210938 42.44597656 45.33203125 42.50914063 44.734375 42.57421875 C39.12178279 43.45408057 36.26367714 44.8385527 32.828125 49.375 C31.45832899 51.43369926 30.1531012 53.52079667 28.8671875 55.6328125 C25.54289924 61.02694061 25.54289924 61.02694061 22.4921875 62.3828125 C19.47411581 62.60811994 16.51171041 62.55701575 13.4921875 62.3828125 C16.12551539 67.97863426 21.03576055 71.65459902 26.4921875 74.3828125 C26.8015625 73.3928125 26.8015625 73.3928125 27.1171875 72.3828125 C33.70756647 58.00380383 46.99086591 49.15649649 61.2265625 43.48046875 C71.34373898 40.07983886 81.87287331 38.8439143 92.4921875 38.3828125 C93.306875 38.32996094 94.1215625 38.27710938 94.9609375 38.22265625 C117.63933937 37.35331751 137.43751355 48.38320675 156.1171875 59.8203125 C163.37794699 64.16713534 169.13634189 64.65043745 177.4921875 64.3828125 C178.07806466 75.36258447 178.07806466 75.36258447 174.4921875 80.3828125 C171.3046875 82.7578125 171.3046875 82.7578125 168.4921875 84.3828125 C168.64558594 85.445 168.79898437 86.5071875 168.95703125 87.6015625 C169.67480893 93.34378392 169.8438502 99.10379665 170.0546875 104.8828125 C170.09787109 105.99140625 170.14105469 107.1 170.18554688 108.2421875 C170.29080964 110.95562756 170.39294596 113.66914667 170.4921875 116.3828125 C183.25643874 120.73030952 199.24975299 120.0048747 211.4921875 114.3828125 C220.05525946 110.10777354 224.38575355 103.82487671 228.4921875 95.3828125 C228.8221875 95.3828125 229.1521875 95.3828125 229.4921875 95.3828125 C231.58181142 108.54407284 231.92670089 122.49195686 224.8671875 134.2578125 C219.94339835 140.95659724 213.65020623 144.6485358 205.53515625 146.15625 C203.4921875 146.3828125 203.4921875 146.3828125 199.4921875 146.3828125 C199.34523438 147.27033203 199.34523438 147.27033203 199.1953125 148.17578125 C198.24808306 153.1813989 197.42264895 156.86608384 193.4921875 160.3828125 C188.76388483 162.87830558 184.84143431 163.52759268 179.4921875 163.3828125 C179.27304688 162.34382812 179.05390625 161.30484375 178.828125 160.234375 C175.79072297 145.98984365 175.79072297 145.98984365 166.4921875 135.3828125 C166.07259766 136.58164062 166.07259766 136.58164062 165.64453125 137.8046875 C161.95028447 147.92526069 157.38683301 157.05492558 150.4921875 165.3828125 C152.55371139 166.03175487 154.61645008 166.6768389 156.6796875 167.3203125 C158.40251953 167.85978516 158.40251953 167.85978516 160.16015625 168.41015625 C179.6480455 174.09888359 198.91695495 169.18887664 216.40234375 159.82421875 C229.27107377 152.10298074 241.14085323 141.12431531 246 126.546875 C248.51549108 115.48669995 247.65692762 104.58111982 242.5 94.4296875 C239.02915474 88.92420882 233.81481554 85.82368851 227.69921875 83.78515625 C224.40161145 83.18399952 221.08308994 83.01293542 217.7421875 82.8203125 C216.69611328 82.75553711 216.69611328 82.75553711 215.62890625 82.68945312 C213.91686828 82.58391654 212.20455189 82.4829134 210.4921875 82.3828125 C210.9871875 83.30964844 211.4821875 84.23648438 211.9921875 85.19140625 C213.77325533 88.98081359 213.83158547 90.44833097 212.4921875 94.3828125 C207.94415154 100.05897456 202.7869604 101.18362266 196.0859375 103.0546875 C191.01918478 104.57471332 187.9077012 106.11342038 184.4921875 110.3828125 C184.1621875 111.3728125 183.8321875 112.3628125 183.4921875 113.3828125 C182.5021875 113.0528125 181.5121875 112.7228125 180.4921875 112.3828125 C178.26619774 107.04858094 178.49006639 102.94939697 179.9921875 97.5078125 C180.17942383 96.80599854 180.36666016 96.10418457 180.55957031 95.38110352 C183.49491837 85.12753918 189.52852544 77.52668182 198.7109375 72.0625 C210.3444907 66.79794903 226.8611023 67.72416199 238.6328125 72.0546875 C252.74622631 78.61009829 261.18767168 87.70538014 267.59765625 101.81640625 C272.33573201 115.00738713 269.78516058 130.79474175 264.4921875 143.3828125 C265.3790625 143.6303125 266.2659375 143.8778125 267.1796875 144.1328125 C276.13325674 147.51151787 282.62143128 155.86985563 286.4921875 164.3828125 C289.11855603 171.48420703 288.69996581 178.91433658 288.4921875 186.3828125 C285.41173757 184.99933609 283.20671845 183.36680725 280.7421875 181.0703125 C270.75599641 172.19164722 261.21847993 168.46555176 247.72265625 168.97265625 C240.62084467 169.4907166 234.11623719 171.94338593 227.4921875 174.3828125 C198.35515292 184.91931976 170.42985487 191.20676021 140.75390625 177.921875 C137.67540286 177.18813844 136.31942937 178.01982873 133.4921875 179.3828125 C131.30648792 180.24157574 129.11888575 181.09550785 126.9296875 181.9453125 C125.81464844 182.37972656 124.69960937 182.81414062 123.55078125 183.26171875 C112.81900912 187.19533127 100.62904166 186.51098241 90.0078125 182.55078125 C87.4921875 181.3828125 87.4921875 181.3828125 85.11328125 179.609375 C82.43623775 178.03511022 82.43623775 178.03511022 79.07421875 179.11328125 C77.8098077 179.57800196 76.55322609 180.0644943 75.3046875 180.5703125 C59.78922752 186.46781195 41.09437623 188.52717941 25.2421875 182.64453125 C15.05088134 177.9686905 6.31686347 171.37135603 -1.5078125 163.3828125 C-2.30703125 164.16785156 -3.10625 164.95289063 -3.9296875 165.76171875 C-18.1868407 179.50890623 -31.02523895 185.85945658 -50.94067383 185.8137207 C-60.82204137 185.58166146 -71.02578955 184.11903762 -80.19140625 180.25 C-83.88636387 178.8667275 -86.40292957 178.92145152 -90.04296875 180.44140625 C-90.87699219 180.89644531 -91.71101562 181.35148438 -92.5703125 181.8203125 C-101.72300708 186.77038307 -113.02994229 186.73734007 -123.11328125 184.62890625 C-127.53604884 183.19949467 -131.31923578 181.5963208 -135.1328125 178.9453125 C-139.49273722 176.92682883 -141.18970817 177.72016498 -145.55859375 179.3125 C-149.05438541 180.58117141 -152.60389457 181.55672554 -156.1953125 182.5078125 C-157.41605469 182.84039062 -158.63679687 183.17296875 -159.89453125 183.515625 C-187.76308381 190.20407762 -212.69785495 180.98160481 -238.49365234 171.44262695 C-247.88706329 168.13979228 -259.36438468 167.69132386 -268.7578125 171.2578125 C-274.6700702 174.0953691 -279.73358708 178.04939138 -284.79296875 182.17578125 C-287.5078125 184.3828125 -287.5078125 184.3828125 -290.5078125 186.3828125 C-291.07467701 173.83306201 -290.47559865 163.36975463 -282.21484375 153.1640625 C-277.92596886 148.68871479 -272.81243504 145.51778007 -267.5078125 142.3828125 C-267.92353516 140.97128906 -267.92353516 140.97128906 -268.34765625 139.53125 C-268.89099609 137.66339844 -268.89099609 137.66339844 -269.4453125 135.7578125 C-269.80496094 134.52804688 -270.16460938 133.29828125 -270.53515625 132.03125 C-274.02108119 118.95553156 -273.02302761 106.74444491 -266.7578125 94.6328125 C-259.15979289 81.70317521 -247.86584797 73.69020717 -233.34765625 69.8046875 C-219.92335669 67.81043117 -207.06607624 68.28217826 -195.4453125 75.69921875 C-188.74007157 80.7715023 -183.90110812 89.16236837 -182.5078125 97.3828125 C-181.70573214 109.38485133 -181.70573214 109.38485133 -184.02734375 112.2734375 C-184.51589844 112.63953125 -185.00445313 113.005625 -185.5078125 113.3828125 C-186.0853125 112.4546875 -186.6628125 111.5265625 -187.2578125 110.5703125 C-191.04998886 105.19806266 -194.73650678 103.79985356 -201.0078125 102.3203125 C-210.90595532 99.9274605 -210.90595532 99.9274605 -214.2578125 96.6953125 C-216.01264371 93.44887476 -215.8326017 91.0204515 -215.5078125 87.3828125 C-214.88538677 86.02826149 -214.22665427 84.68875612 -213.5078125 83.3828125 C-223.40985999 82.90751422 -232.42836674 82.50047768 -240.53125 89.0078125 C-247.59567208 96.16165764 -249.69881147 105.13702174 -250.0078125 114.9453125 C-249.67624203 125.76556209 -245.94075222 133.84365648 -239.5078125 142.3828125 C-238.90066406 143.25486328 -238.90066406 143.25486328 -238.28125 144.14453125 C-227.8034481 157.9328043 -207.12472877 167.53178829 -190.5078125 170.3828125 C-177.36144516 171.67510974 -165.17973007 169.81096411 -152.5078125 166.3828125 C-153.36052734 165.25359375 -153.36052734 165.25359375 -154.23046875 164.1015625 C-158.73906628 157.89941832 -162.51346979 151.80474966 -165.5703125 144.7578125 C-165.86881104 144.07138672 -166.16730957 143.38496094 -166.47485352 142.67773438 C-167.69492709 139.75625709 -168.5078125 137.57922356 -168.5078125 134.3828125 C-177.45317701 142.83121231 -180.55536267 151.38194465 -181.5078125 163.3828125 C-187.99028953 163.77969885 -192.71753496 162.6451997 -197.8203125 158.5078125 C-200.9715405 154.53959946 -201.60740943 151.35435922 -201.5078125 146.3828125 C-202.12527344 146.35703125 -202.74273438 146.33125 -203.37890625 146.3046875 C-211.07702359 145.78913626 -217.2236103 144.06988703 -223.2578125 139.1328125 C-229.48361254 131.52350134 -232.68790187 124.507991 -233.1953125 114.5703125 C-233.23438721 113.8676123 -233.27346191 113.16491211 -233.3137207 112.44091797 C-233.55915095 107.26359368 -233.47311593 102.47259423 -232.5078125 97.3828125 C-231.8478125 96.7228125 -231.1878125 96.0628125 -230.5078125 95.3828125 C-230.12302734 96.32640625 -230.12302734 96.32640625 -229.73046875 97.2890625 C-226.19041205 105.2035327 -221.61007042 111.00083823 -213.62109375 114.73046875 C-210.93409186 115.73136798 -208.26913357 116.61312143 -205.5078125 117.3828125 C-204.89437988 117.5586084 -204.28094727 117.7344043 -203.64892578 117.91552734 C-199.55831284 118.80827913 -195.36538651 118.56744252 -191.1953125 118.5703125 C-190.27041016 118.58255859 -189.34550781 118.59480469 -188.39257812 118.60742188 C-183.02611874 118.61886422 -178.58131051 118.15328836 -173.5078125 116.3828125 C-173.43433594 114.44341797 -173.43433594 114.44341797 -173.359375 112.46484375 C-172.94964951 102.63521706 -172.32819443 93.06795129 -170.5078125 83.3828125 C-171.12398437 83.25390625 -171.74015625 83.125 -172.375 82.9921875 C-176.06783464 81.93709189 -177.90118155 79.44441666 -179.7578125 76.1953125 C-180.81190821 72.24245357 -180.66726581 68.44887188 -180.5078125 64.3828125 C-179.82976562 64.42921875 -179.15171875 64.475625 -178.453125 64.5234375 C-177.52242187 64.55953125 -176.59171875 64.595625 -175.6328125 64.6328125 C-174.72789062 64.67921875 -173.82296875 64.725625 -172.890625 64.7734375 C-164.25861197 63.77666925 -157.01717893 59.07445004 -149.8203125 54.5078125 C-125.31870225 39.41812766 -99.72017405 35.35669354 -71.59375 41.1953125 C-54.44061686 45.75933906 -42.0740977 54.24060109 -31.5078125 68.3828125 C-30.17960051 70.05356337 -28.8476138 71.72134085 -27.5078125 73.3828125 C-22.39108277 69.88058487 -18.60136918 66.79653669 -15.5078125 61.3828125 C-16.1678125 61.7128125 -16.8278125 62.0428125 -17.5078125 62.3828125 C-22.27920757 62.85995201 -24.48478993 62.99662604 -28.6328125 60.5078125 C-31.8877667 57.42137092 -33.96253331 53.58610095 -36.11328125 49.6875 C-37.98992023 46.58605183 -39.26203495 44.78516207 -42.76953125 43.65234375 C-43.57003906 43.50152344 -44.37054687 43.35070313 -45.1953125 43.1953125 C-46.00355469 43.03675781 -46.81179688 42.87820312 -47.64453125 42.71484375 C-48.25941406 42.60527344 -48.87429688 42.49570312 -49.5078125 42.3828125 C-47.17126004 36.11101378 -44.54807881 32.31752742 -38.7578125 28.6328125 C-34.7259631 27.08210119 -30.82975886 26.41738807 -26.5078125 26.3828125 C-25.8478125 26.7128125 -25.1878125 27.0428125 -24.5078125 27.3828125 C-24.50394531 26.5475 -24.50394531 26.5475 -24.5 25.6953125 C-24.16168723 19.01927385 -22.16284443 15.13131896 -17.5078125 10.3828125 C-14.29973008 7.53346134 -10.99851686 4.87775333 -7.5078125 2.3828125 C-6.68410156 1.77050781 -5.86039063 1.15820312 -5.01171875 0.52734375 C-2.5078125 -0.6171875 -2.5078125 -0.6171875 0 0 Z M-8.5078125 28.3828125 C-10.54840796 31.4437057 -11.09334364 33.27146865 -11.0390625 36.921875 C-10.08238935 41.35352269 -7.53965713 44.95479098 -5.13671875 48.74609375 C-3.5078125 51.3828125 -3.5078125 51.3828125 -2.5078125 54.3828125 C-1.8478125 54.3828125 -1.1878125 54.3828125 -0.5078125 54.3828125 C-0.09789062 53.55136719 0.31203125 52.71992187 0.734375 51.86328125 C1.27320313 50.77660156 1.81203125 49.68992187 2.3671875 48.5703125 C2.90085937 47.49136719 3.43453125 46.41242187 3.984375 45.30078125 C5.4921875 42.3828125 5.4921875 42.3828125 7.4921875 39.3828125 C8.02784177 34.71496814 8.22312072 31.74478216 5.3046875 27.9453125 C2.73721597 25.34721089 2.73721597 25.34721089 0.0546875 24.2578125 C-3.68924083 24.44044315 -5.62647708 26.07774416 -8.5078125 28.3828125 Z M-150.3203125 73.265625 C-157.3504805 81.94788248 -159.69761756 91.73728436 -159.5703125 102.6953125 C-159.56580078 103.43587891 -159.56128906 104.17644531 -159.55664062 104.93945312 C-159.54493425 106.75394149 -159.52700148 108.56838784 -159.5078125 110.3828125 C-158.21423828 109.94582031 -158.21423828 109.94582031 -156.89453125 109.5 C-154.74554023 108.79110562 -152.58185674 108.12424372 -150.40234375 107.515625 C-147.08439556 106.43066856 -144.39509142 105.35899452 -141.5078125 103.3828125 C-140.13393573 100.39081421 -139.64315756 97.69660703 -139.1171875 94.453125 C-137.73289108 87.47840073 -133.56114003 82.822047 -127.8203125 78.8828125 C-120.52265232 74.34540721 -112.82534517 74.79396063 -104.5078125 75.3828125 C-99.1394641 76.81644981 -95.44417258 79.66366238 -92.5078125 84.3828125 C-87.9821888 93.28807203 -87.4549841 99.90242139 -88.05859375 109.88671875 C-87.8636688 113.65152288 -87.8636688 113.65152288 -84.48828125 115.84765625 C-83.50472656 116.35425781 -82.52117187 116.86085937 -81.5078125 117.3828125 C-81.311875 116.54878906 -81.1159375 115.71476562 -80.9140625 114.85546875 C-78.13623311 104.40268831 -73.90136856 97.91404008 -64.6953125 92.1328125 C-56.94161039 87.83314052 -48.84543069 84.37176996 -40.5078125 81.3828125 C-43.3693618 75.77417587 -46.72714659 71.51099907 -51.5078125 67.3828125 C-51.8378125 67.3828125 -52.1678125 67.3828125 -52.5078125 67.3828125 C-52.60578125 67.98609375 -52.70375 68.589375 -52.8046875 69.2109375 C-53.71473283 74.07497291 -54.36230773 77.27368392 -58.5078125 80.3828125 C-64.17201255 83.21491253 -71.14563531 81.17077313 -76.85888672 79.38134766 C-81.23015151 77.73356212 -85.10325832 75.38833762 -89.0703125 72.9453125 C-108.71977717 61.00088812 -132.16171267 54.40259672 -150.3203125 73.265625 Z M85.35546875 73.28417969 C82.54157061 74.94331774 79.66142652 76.41610746 76.7421875 77.8828125 C75.81921875 78.346875 74.89625 78.8109375 73.9453125 79.2890625 C68.8598254 81.55647713 64.00998623 81.91583778 58.4921875 81.3828125 C54.86158451 79.96214177 53.77272508 78.84369566 51.7421875 75.5078125 C50.64219564 72.75783286 49.9216995 70.30349411 49.4921875 67.3828125 C44.94940714 70.98130705 41.36958342 74.31859569 38.4921875 79.3828125 C38.4921875 80.0428125 38.4921875 80.7028125 38.4921875 81.3828125 C40.24982422 82.12724609 40.24982422 82.12724609 42.04296875 82.88671875 C68.39171038 94.20429905 68.39171038 94.20429905 74.4921875 104.3828125 C76.1395879 108.64840282 77.40282919 112.94418486 78.4921875 117.3828125 C81.91467493 115.89463418 81.91467493 115.89463418 84.4921875 113.3828125 C84.87609888 110.65886986 84.73236222 108.13608856 84.5859375 105.390625 C84.34720964 97.7314395 86.00014314 89.69931795 90.4921875 83.3828125 C94.75898713 78.91709448 98.79781968 75.63605363 105.06640625 75.046875 C106.43724171 75.01724791 107.80853492 75.00494664 109.1796875 75.0078125 C109.89286133 75.00797363 110.60603516 75.00813477 111.34082031 75.00830078 C117.12931335 75.13333644 121.49808572 76.40806492 126.4921875 79.3828125 C127.18828125 79.67414063 127.884375 79.96546875 128.6015625 80.265625 C130.96828062 81.66414025 131.44812825 82.87520591 132.4921875 85.3828125 C132.8221875 85.97320312 133.1521875 86.56359375 133.4921875 87.171875 C135.65705421 91.14643498 136.54887174 93.90929638 136.7421875 98.4453125 C136.99881841 101.0564118 136.99881841 101.0564118 138.4921875 103.3828125 C143.67472305 107.03036805 151.17112797 110.3828125 157.4921875 110.3828125 C158.07465328 95.75644962 155.54302635 82.46450662 145.4921875 71.3828125 C138.8239819 64.7756431 129.50924729 61.4189941 120.1796875 60.8828125 C107.02942958 61.67470759 96.42909507 66.59151449 85.35546875 73.28417969 Z M-2.5078125 66.3828125 C-2.83652344 67.13304688 -3.16523437 67.88328125 -3.50390625 68.65625 C-7.23317246 76.68074152 -11.9069763 84.88495494 -19.62426758 89.70458984 C-21.71882502 91.22339165 -21.71882502 91.22339165 -21.91430664 93.64086914 C-21.87426514 94.51606201 -21.83422363 95.39125488 -21.79296875 96.29296875 C-21.76460937 97.27523437 -21.73625 98.2575 -21.70703125 99.26953125 C-21.66191406 100.31753906 -21.61679687 101.36554688 -21.5703125 102.4453125 C-21.31243868 113.12128844 -22.29612311 122.95627678 -24.5078125 133.3828125 C-23.59 133.68574219 -22.6721875 133.98867187 -21.7265625 134.30078125 C-10.47247499 138.14277541 -10.47247499 138.14277541 -5.8828125 141.2578125 C-2.9131143 143.60023459 -2.9131143 143.60023459 -0.69140625 143.23046875 C3.46081741 141.61860375 7.23849894 139.26626436 11.10546875 137.07421875 C14.59789513 135.33001965 17.72442511 134.33310999 21.4921875 133.3828125 C21.05715805 128.81500326 20.56362113 124.45508412 19.4296875 120.0078125 C18.00482282 113.87238773 17.84481538 107.54592187 19.109375 101.3671875 C19.71889461 98.11084987 20.0340967 95.66070231 19.4921875 92.3828125 C17.06733332 89.43929664 14.42087646 87.26384655 11.43359375 84.8984375 C5.68362244 79.98079936 2.12694934 73.4046419 -0.5078125 66.3828125 C-1.1678125 66.3828125 -1.8278125 66.3828125 -2.5078125 66.3828125 Z M-119.5078125 90.3828125 C-123.15564526 93.45030823 -124.88012112 95.96584998 -126.5078125 100.3828125 C-124.84105469 100.54716797 -124.84105469 100.54716797 -123.140625 100.71484375 C-114.98827801 101.56700546 -107.2523029 102.52857771 -99.5078125 105.3828125 C-99.69699886 101.04098557 -99.97687134 97.40044972 -102.0078125 93.5078125 C-107.19777432 89.09634495 -113.24154918 86.96485069 -119.5078125 90.3828125 Z M100.6171875 92.4453125 C97.79766903 96.34288214 97.60519233 99.66742914 97.4921875 104.3828125 C98.44738281 104.17785156 99.40257812 103.97289063 100.38671875 103.76171875 C108.07988527 102.14646306 115.62716187 100.85700323 123.4921875 100.3828125 C122.84392908 95.36733949 121.17414139 93.65638589 117.3203125 90.6171875 C111.60224537 86.75627037 105.94357371 88.62420935 100.6171875 92.4453125 Z M31.4921875 100.3828125 C30.93454499 117.44254267 34.1563001 131.59435522 40.4921875 147.3828125 C39.49251953 147.14884766 39.49251953 147.14884766 38.47265625 146.91015625 C26.99920169 144.48709102 18.65309534 145.40969748 8.4921875 151.3828125 C8.17502919 154.42324451 8.17502919 154.42324451 10.1171875 156.36328125 C22.83097354 168.1779015 36.21991422 172.87996982 53.375 172.68359375 C60.77643996 172.40993414 67.40247097 170.46419717 74.4921875 168.3828125 C72.5121875 162.4428125 70.5321875 156.5028125 68.4921875 150.3828125 C66.6153125 150.4859375 64.7384375 150.5890625 62.8046875 150.6953125 C58.66853739 150.67582534 56.93783234 150.6591123 53.3671875 148.4453125 C50.2187283 143.30282914 49.66483006 138.34007482 49.14453125 132.44140625 C48.1701448 121.47583019 46.43878217 111.45136365 37.8046875 103.6953125 C35.6096312 101.98468242 34.19905979 101.28510326 31.4921875 100.3828125 Z M-35.5078125 100.3828125 C-43.98965714 105.67858352 -48.82075592 112.42167052 -51.10107422 122.21484375 C-51.93983841 126.68556763 -52.22927098 131.22645025 -52.54296875 135.75976562 C-53.04157317 141.25852573 -54.37739361 144.8062115 -57.5078125 149.3828125 C-60.27233283 150.76507266 -62.5539488 150.47806637 -65.6328125 150.4453125 C-66.72851562 150.43628906 -67.82421875 150.42726562 -68.953125 150.41796875 C-69.79617188 150.40636719 -70.63921875 150.39476562 -71.5078125 150.3828125 C-72.34668306 152.81853309 -73.17907779 155.25614467 -74.0078125 157.6953125 C-74.24628906 158.38560547 -74.48476563 159.07589844 -74.73046875 159.78710938 C-75.73989513 162.77212739 -76.5078125 165.20940164 -76.5078125 168.3828125 C-61.2107302 173.10908344 -44.43801798 175.71846259 -29.5078125 168.3828125 C-22.46270869 164.53656664 -16.33933287 159.88014833 -10.5078125 154.3828125 C-11.73473484 150.70204549 -12.57692678 150.47090727 -15.9453125 148.7578125 C-25.71575134 144.1844156 -33.37908809 145.30242724 -43.5078125 148.3828125 C-43.10949219 147.43921875 -42.71117187 146.495625 -42.30078125 145.5234375 C-37.75258428 134.58655035 -34.51763594 124.26809372 -33.6953125 112.3828125 C-33.61543091 111.28670654 -33.61543091 111.28670654 -33.53393555 110.16845703 C-33.33802812 106.36794135 -33.3407366 103.59577446 -35.5078125 100.3828125 Z M-126.5078125 114.3828125 C-124.52318144 123.35499875 -120.21736766 130.61931778 -115.5078125 138.3828125 C-114.5178125 138.3828125 -113.5278125 138.3828125 -112.5078125 138.3828125 C-107.59860007 132.41365647 -104.56596569 125.76795042 -102.5078125 118.3828125 C-103.75672864 117.90082787 -105.00700058 117.42235573 -106.2578125 116.9453125 C-106.95390625 116.67847656 -107.65 116.41164063 -108.3671875 116.13671875 C-112.63878312 114.63230642 -116.20335299 114.27080751 -120.7578125 114.3203125 C-121.83546875 114.32933594 -122.913125 114.33835937 -124.0234375 114.34765625 C-125.25320313 114.36505859 -125.25320313 114.36505859 -126.5078125 114.3828125 Z M101.4921875 117.3828125 C100.38477608 119.12396 100.38477608 119.12396 100.4921875 121.3828125 C101.53860603 124.31828763 101.53860603 124.31828763 103.1796875 127.3203125 C103.95892578 128.84978516 103.95892578 128.84978516 104.75390625 130.41015625 C106.45100751 133.31239008 108.32472527 135.81869052 110.4921875 138.3828125 C114.54660479 137.03134007 115.57385986 134.4308783 117.5546875 130.8828125 C117.91175781 130.25294434 118.26882813 129.62307617 118.63671875 128.97412109 C121.26157009 124.18107398 122.74109132 119.82825977 123.4921875 114.3828125 C112.12936063 113.84604382 112.12936063 113.84604382 101.4921875 117.3828125 Z M-150.7578125 120.8828125 C-151.4075 121.21667969 -152.0571875 121.55054688 -152.7265625 121.89453125 C-154.32403754 122.71676105 -155.91644072 123.54883157 -157.5078125 124.3828125 C-156.23351192 137.63553857 -149.00511715 150.28964847 -139.5078125 159.3828125 C-135.61774477 157.99500455 -132.54222542 156.1675898 -129.1953125 153.7578125 C-128.31230469 153.12617188 -127.42929687 152.49453125 -126.51953125 151.84375 C-125.85566406 151.36164063 -125.19179688 150.87953125 -124.5078125 150.3828125 C-125.64726495 147.98119733 -126.8997351 145.7347992 -128.27734375 143.45703125 C-133.35514451 135.03933859 -136.76148072 126.81012449 -139.5078125 117.3828125 C-144.06899294 117.3828125 -146.8415355 118.82119514 -150.7578125 120.8828125 Z M137.4921875 117.3828125 C137.1003125 118.4553125 136.7084375 119.5278125 136.3046875 120.6328125 C135.70231493 122.21682926 135.09792486 123.8000794 134.4921875 125.3828125 C134.151875 126.300625 133.8115625 127.2184375 133.4609375 128.1640625 C130.39680613 136.03142684 126.39390485 142.52284082 121.4921875 149.3828125 C124.20485341 152.24479947 126.93386767 154.49213496 130.2421875 156.6328125 C131.04140625 157.15359375 131.840625 157.674375 132.6640625 158.2109375 C133.56898438 158.79101562 133.56898438 158.79101562 134.4921875 159.3828125 C144.1058504 155.11007343 148.59789682 144.57011841 152.4921875 135.3828125 C153.69193905 131.74964261 154.69065352 128.12330442 155.4921875 124.3828125 C153.62251145 123.39351789 151.74617372 122.41680781 149.8671875 121.4453125 C148.82304688 120.90003906 147.77890625 120.35476562 146.703125 119.79296875 C143.56801832 118.41611533 140.87764118 117.78439034 137.4921875 117.3828125 Z M-91.5078125 127.3828125 C-91.94351563 128.2284375 -92.37921875 129.0740625 -92.828125 129.9453125 C-96.26403516 136.48990327 -99.78682298 142.65882887 -104.5078125 148.3828125 C-103.14976696 151.5042903 -101.69405395 153.35239479 -99.0703125 155.5078125 C-98.17505859 156.25417969 -98.17505859 156.25417969 -97.26171875 157.015625 C-94.22537536 159.62959273 -94.22537536 159.62959273 -90.4609375 160.22265625 C-87.33168714 158.8770786 -86.62166895 156.75677014 -85.2734375 153.75 C-82.66680698 145.690724 -84.82893823 137.77747282 -88.5078125 130.3828125 C-90.03823985 128.61002603 -90.03823985 128.61002603 -91.5078125 127.3828125 Z M87.4921875 127.3828125 C86.67466447 128.96355814 85.86336753 130.54752473 85.0546875 132.1328125 C84.60222656 133.01453125 84.14976562 133.89625 83.68359375 134.8046875 C80.96042025 140.69745639 80.19708655 147.51033243 82.28125 153.7421875 C84.02118678 157.38144459 85.05373789 159.09051276 88.4921875 161.3828125 C90.66794286 159.78984876 92.83233801 158.1845867 94.9921875 156.5703125 C95.61222656 156.11849609 96.23226563 155.66667969 96.87109375 155.20117188 C98.46752712 153.99946104 99.98635829 152.69627617 101.4921875 151.3828125 C101.4921875 147.29573052 99.44673284 144.90853192 97.2421875 141.6328125 C94.14282351 136.96862304 91.22548388 132.27265465 88.4921875 127.3828125 C88.1621875 127.3828125 87.8321875 127.3828125 87.4921875 127.3828125 Z M106.5546875 163.3203125 C101.70631051 167.275751 101.70631051 167.275751 99.4921875 168.3828125 C99.4921875 169.0428125 99.4921875 169.7028125 99.4921875 170.3828125 C107.56042759 172.86397483 113.52932605 171.92764451 121.4921875 169.3828125 C121.4921875 168.3928125 121.4921875 167.4028125 121.4921875 166.3828125 C119.53565659 164.46612121 119.53565659 164.46612121 117.0546875 162.6953125 C116.23097656 162.07269531 115.40726563 161.45007813 114.55859375 160.80859375 C110.82870348 158.23503998 109.8465266 160.63300053 106.5546875 163.3203125 Z M-120.0703125 163.2578125 C-120.66972656 163.79148438 -121.26914062 164.32515625 -121.88671875 164.875 C-123.11723572 166.01952904 -124.31951146 167.19451146 -125.5078125 168.3828125 C-117.39634232 171.71430918 -111.00723727 173.39302544 -102.5078125 170.3828125 C-103.75541498 166.64000507 -105.1772757 165.91131403 -108.3828125 163.6953125 C-109.26710938 163.07269531 -110.15140625 162.45007813 -111.0625 161.80859375 C-115.13224827 159.43565746 -116.81645761 160.320207 -120.0703125 163.2578125 Z " fill="#CEBA7A" transform="translate(999.5078125,9.6171875)"/>
<path d="M0 0 C30.36 0 60.72 0 92 0 C92 82.5 92 165 92 250 C102.87700568 241.64029204 102.87700568 241.64029204 113.67822266 233.18652344 C116.57913914 230.89578612 119.4887327 228.62078024 122.43359375 226.38671875 C130.48822792 220.23846625 137.89454291 213.58660006 145.2109375 206.578125 C148.42316661 203.51110968 151.73443058 200.57931534 155.08935547 197.66992188 C157.90334182 195.21047047 160.63994771 192.6714871 163.375 190.125 C167.26861859 186.51537327 171.17468028 182.92273936 175.125 179.375 C175.91003906 178.66988281 176.69507813 177.96476563 177.50390625 177.23828125 C178.82854142 176.05046286 180.15340249 174.86289431 181.47998047 173.67724609 C183.01002417 172.30846291 184.53648154 170.93576783 186.0625 169.5625 C186.98160156 168.73878906 187.90070313 167.91507813 188.84765625 167.06640625 C191.51130989 164.50910538 191.94280862 163.6862965 192.25 160 C192.1675 159.01 192.085 158.02 192 157 C188.14395575 154.42930383 184.87253657 154.64934944 180.39453125 154.5859375 C179.55532639 154.56657135 178.71612152 154.5472052 177.85148621 154.5272522 C175.17192742 154.46748787 172.4923256 154.42108388 169.8125 154.375 C167.99542401 154.3368173 166.17836606 154.29776539 164.36132812 154.2578125 C159.90769868 154.16178897 155.45398449 154.07774641 151 154 C151 148.72 151 143.44 151 138 C196.54 138 242.08 138 289 138 C289 143.28 289 148.56 289 154 C285.85210938 154.14695312 285.85210938 154.14695312 282.640625 154.296875 C280.56502369 154.40548885 278.48981255 154.51986572 276.41455078 154.63476562 C274.99330809 154.71042844 273.57174163 154.78027798 272.14990234 154.84375 C248.4121851 155.91588402 231.60101564 166.84225668 214.72631836 182.75268555 C209.48569991 187.61721156 203.77199344 191.79026099 198.01953125 196.0234375 C194.22398668 198.81708934 190.50730286 201.6999046 186.8125 204.625 C181.96471692 208.45745166 177.09091373 212.25179341 172.18603516 216.01123047 C166.58123916 220.31156385 161.0103223 224.65526458 155.44238281 229.00317383 C150.66890493 232.72437025 145.85530764 236.38621348 141 240 C145.87396549 250.83981664 156.30490732 259.59078666 164.62890625 267.859375 C165.83035822 269.05963074 167.03143622 270.26026094 168.23216248 271.46124268 C170.7310333 273.95856218 173.23318521 276.45252758 175.73803711 278.94384766 C178.92918573 282.1179624 182.1136668 285.29866525 185.29592991 288.48168564 C187.76906627 290.95454865 190.2448109 293.42478645 192.72141838 295.89417267 C193.89602981 297.06563055 195.07006174 298.23766982 196.24347115 299.41033173 C201.828733 304.98813501 207.4037829 310.53411563 213.42686462 315.64581299 C215.74481457 317.64115157 217.86743963 319.80980286 220 322 C223.5117655 325.54918157 227.09008901 328.91968457 230.8828125 332.1640625 C233.40599455 334.3520617 235.85554519 336.61293113 238.3125 338.875 C243.715213 343.79598962 249.30511132 348.42335344 255 353 C256.17910719 353.97047789 257.35745397 354.94188019 258.53515625 355.9140625 C266.6599342 362.57983958 274.90645231 368.71409543 284 374 C284.77859375 374.4640625 285.5571875 374.928125 286.359375 375.40625 C294.9807892 379.68638471 305.58846512 378.82667523 315 379 C315 384.28 315 389.56 315 395 C267.81 395 220.62 395 172 395 C172 389.72 172 384.44 172 379 C173.24136719 378.89042969 174.48273438 378.78085937 175.76171875 378.66796875 C177.40370897 378.50846113 179.04563278 378.3482688 180.6875 378.1875 C181.50412109 378.11724609 182.32074219 378.04699219 183.16210938 377.97460938 C187.79595854 377.5055963 191.20689407 376.94021821 195 374 C196.1860521 372.26033623 196.1860521 372.26033623 196 370 C194.13629585 364.84890245 192.13619891 361.64287449 188.17578125 357.75 C187.71068649 357.28819336 187.24559174 356.82638672 186.7664032 356.35058594 C185.29094428 354.89071953 183.801933 353.44559052 182.3125 352 C181.33311469 351.03212924 180.35459199 350.0633848 179.37695312 349.09375 C175.33422231 345.10285889 171.26290399 341.1677542 166.94921875 337.46875 C160.88187367 332.25553443 155.38910959 326.43056023 149.77734375 320.73828125 C145.95548217 316.88304096 142.15808148 313.06132988 138.03125 309.53125 C132.21395096 304.54919511 126.93669104 298.99289125 121.56347656 293.54296875 C116.60073446 288.51586344 111.6270089 283.58026661 106.23950195 279.00488281 C103.47464403 276.52968241 100.86176518 273.91529402 98.25 271.28125 C97.74339844 270.77239258 97.23679687 270.26353516 96.71484375 269.73925781 C95.47541345 268.49398114 94.23754682 267.24714848 93 266 C92.93051769 279.47352921 92.87719759 292.94701585 92.84456348 306.42068768 C92.82890149 312.67692578 92.80765317 318.93304138 92.77368164 325.18920898 C92.74110769 331.22571328 92.72315101 337.26209968 92.71536827 343.29868507 C92.70982127 345.60280018 92.69898948 347.90690877 92.68280983 350.21097374 C92.66106208 353.43595751 92.65803202 356.66045286 92.65942383 359.88549805 C92.648638 360.83999847 92.63785217 361.7944989 92.6267395 362.77792358 C92.64953957 367.65388044 92.74387585 371.08629031 96 375 C100.5429054 378.01139875 104.70415325 378.46402986 110.0234375 378.51171875 C110.76961334 378.52966995 111.51578918 378.54762115 112.28457642 378.56611633 C114.6479949 378.61993105 117.01121486 378.65402067 119.375 378.6875 C120.98570454 378.72069872 122.59638298 378.75519072 124.20703125 378.79101562 C128.13804479 378.8780566 132.0681791 378.93836605 136 379 C136 384.28 136 389.56 136 395 C91.12 395 46.24 395 0 395 C0 389.72 0 384.44 0 379 C2.37316406 378.96261719 4.74632812 378.92523437 7.19140625 378.88671875 C9.50830927 378.84041102 11.82505662 378.78921127 14.1418457 378.73754883 C15.74298519 378.70444408 17.34423732 378.67636779 18.94555664 378.65356445 C21.25715817 378.61975018 23.56774078 378.56742549 25.87890625 378.51171875 C26.9402755 378.50213387 26.9402755 378.50213387 28.02308655 378.49235535 C32.96360614 378.34857887 36.74636047 377.54891797 41 375 C44.9491071 368.48522055 44.41929888 361.73693769 44.38095093 354.30433655 C44.38440988 352.90156088 44.38917604 351.49878793 44.39513266 350.09602064 C44.40763993 346.25067159 44.40147356 342.40554631 44.39217401 338.56019652 C44.38538266 334.40946486 44.39586521 330.25877152 44.40411377 326.10804749 C44.41745273 317.98019634 44.41457253 309.85242832 44.40587585 301.72457392 C44.39909989 295.11820406 44.3981822 288.51185749 44.4014473 281.90548515 C44.401907 280.96512054 44.40236669 280.02475594 44.40284032 279.05589543 C44.4037995 277.14553201 44.40477214 275.2351686 44.4057581 273.32480519 C44.41431259 255.41145897 44.40447717 237.49815881 44.388357 219.58482014 C44.37495595 204.21741236 44.37728004 188.85007257 44.39111328 173.48266602 C44.40717181 155.63483941 44.41348631 137.78705319 44.40427649 119.93922037 C44.40332085 118.03559046 44.40237774 116.13196054 44.4014473 114.22833061 C44.40098447 113.29172373 44.40052164 112.35511685 44.40004479 111.39012795 C44.39745556 104.79290789 44.40182451 98.19571347 44.40888596 91.59849739 C44.41730427 83.55686217 44.41501393 75.51531479 44.39904372 67.47368962 C44.39116514 63.37143595 44.38806233 59.26932867 44.39799118 55.16707611 C44.4069473 51.40985908 44.40199027 47.65292379 44.38605852 43.89573222 C44.38113357 41.89677942 44.39089911 39.89780699 44.40123022 37.89887482 C44.35774476 31.25110306 44.04667779 25.9719482 41 20 C36.06073143 16.70715429 31.09266731 16.82285163 25.29296875 16.68359375 C24.56757401 16.66281265 23.84217926 16.64203156 23.09480286 16.62062073 C20.79245887 16.55557785 18.49000718 16.49645227 16.1875 16.4375 C14.62043186 16.39427165 13.05337435 16.35065602 11.48632812 16.30664062 C7.65766055 16.19921904 3.82890373 16.09981058 0 16 C0 10.72 0 5.44 0 0 Z " fill="#EBDE8C" transform="translate(1433,376)"/>
<path d="M0 0 C10.79674211 9.57446942 19.66010117 19.85790054 26.90625 32.3359375 C27.26106445 32.94679199 27.61587891 33.55764648 27.98144531 34.18701172 C36.1590823 48.59792602 40.99076353 64.89260564 42.90625 81.3359375 C43.01582031 82.13644531 43.12539062 82.93695312 43.23828125 83.76171875 C47.63087783 121.42091343 38.90705952 159.29118754 15.65625 189.4609375 C-9.62077402 221.16070244 -44.38149886 237.90355336 -84.09375 243.3359375 C-85.04121094 243.46871094 -85.98867187 243.60148437 -86.96484375 243.73828125 C-119.22750865 247.4125005 -152.76662393 241.10465095 -178.82421875 220.984375 C-179.91871595 220.1073384 -181.00854749 219.22444908 -182.09375 218.3359375 C-182.64756348 217.88379883 -183.20137695 217.43166016 -183.77197266 216.96582031 C-192.74202425 209.49554263 -199.64829121 201.03245441 -206.09375 191.3359375 C-207.06248047 189.90894531 -207.06248047 189.90894531 -208.05078125 188.453125 C-217.14012658 174.0496929 -222.26521427 157.02583973 -225.09375 140.3359375 C-225.26729004 139.34907959 -225.26729004 139.34907959 -225.44433594 138.34228516 C-231.97274215 99.54960431 -225.53504384 57.25502916 -202.68359375 24.7890625 C-182.77484591 -2.40116053 -155.52133943 -19.08574223 -123.09375 -26.6640625 C-122.33384766 -26.84340332 -121.57394531 -27.02274414 -120.79101562 -27.20751953 C-78.57821686 -36.58710655 -32.92638363 -28.6145953 0 0 Z M-143.09375 3.3359375 C-144.36992188 4.30466797 -144.36992188 4.30466797 -145.671875 5.29296875 C-156.10257627 13.91589511 -162.68238525 25.67581265 -167.09375 38.3359375 C-167.45082031 39.33109375 -167.80789063 40.32625 -168.17578125 41.3515625 C-181.37247521 82.27614153 -176.17520325 136.26637032 -157.21875 174.7109375 C-145.78991412 196.92885468 -130.571324 213.10576038 -106.73046875 221.5234375 C-87.7581493 227.19740219 -66.50751301 226.58911869 -48.90625 217.2734375 C-28.29275959 204.3454029 -18.43835724 181.22106474 -13.09375 158.3359375 C-5.19447724 120.08641196 -7.98718901 79.71612797 -25.09375 44.3359375 C-25.44308594 43.59907715 -25.79242187 42.8622168 -26.15234375 42.10302734 C-31.25966808 31.45107574 -37.37750455 22.27116038 -45.09375 13.3359375 C-45.68671875 12.64113281 -46.2796875 11.94632813 -46.890625 11.23046875 C-59.49655174 -2.40515002 -76.69819244 -9.64622013 -94.96875 -10.625 C-111.97249337 -11.00628623 -129.44697207 -7.11105243 -143.09375 3.3359375 Z " fill="#EBDE8C" transform="translate(1113.09375,532.6640625)"/>
<path d="M0 0 C0.33 -3.3 0.66 -6.6 1 -10 C6.28 -10 11.56 -10 17 -10 C17 15.41 17 40.82 17 67 C11.39 67 5.78 67 0 67 C-0.14695312 64.90011719 -0.14695312 64.90011719 -0.296875 62.7578125 C-1.59670741 45.87515844 -4.00041795 35.51162489 -17.28125 24.02734375 C-35.01294012 10.58081207 -59.55014303 7.70313424 -81.109375 10.46875 C-91.70080071 12.28442298 -102.43625492 16.07607659 -110 24 C-117.21433765 34.2115987 -118.99886675 43.57819557 -118 56 C-116.36261941 64.22835561 -112.50729642 70.70359232 -106 76 C-88.88627158 86.96173454 -67.53236102 92.8940886 -48.51635742 99.84448242 C5.08876586 119.45841422 5.08876586 119.45841422 21 134 C21.70382812 134.61230469 22.40765625 135.22460938 23.1328125 135.85546875 C34.59197247 146.42142424 39.27516561 159.70988188 39.99609375 174.94140625 C40.28852255 196.80976384 33.14203581 216.42308073 17.80859375 232.1875 C16.88175781 233.115625 15.95492188 234.04375 15 235 C14.20722656 235.804375 13.41445312 236.60875 12.59765625 237.4375 C-8.77402625 257.9201774 -38.25404496 265.1310716 -67.11328125 265.03515625 C-88.71641397 264.53910022 -110.11262665 259.97198454 -129.921875 251.31640625 C-132.99083277 250.0039205 -134.73450328 249.27433406 -138 250 C-140.4244419 253.14279505 -141.50823527 256.27058818 -143 260 C-147.62 260 -152.24 260 -157 260 C-157 228.65 -157 197.3 -157 165 C-151.06 165 -145.12 165 -139 165 C-138.97421875 166.53269531 -138.9484375 168.06539062 -138.921875 169.64453125 C-138.84948886 184.83954876 -138.84948886 184.83954876 -134 199 C-133.29037109 200.32064453 -133.29037109 200.32064453 -132.56640625 201.66796875 C-122.10532252 219.45431975 -105.36658647 233.70484054 -85.625 239.9375 C-66.58436871 244.04680514 -44.37909122 241.68954561 -27 233 C-26.11570312 232.55785156 -25.23140625 232.11570312 -24.3203125 231.66015625 C-14.43530588 226.23692314 -8.21474904 218.81493607 -5 208 C-4.17768475 204.98385705 -4.17768475 204.98385705 -4 202 C-3.93683594 201.34773437 -3.87367188 200.69546875 -3.80859375 200.0234375 C-3.35315435 191.70799547 -5.91165809 184.08862394 -11.25 177.6875 C-22.4716862 166.06334826 -37.46499701 161.30170988 -52.33404541 155.99368286 C-66.694444 150.85737009 -80.99704306 145.57032675 -95.19924927 140.01095581 C-96.78769112 139.38988338 -98.37739266 138.77202084 -99.96847534 138.15774536 C-113.96961472 132.74387657 -127.46625731 126.80601605 -139 117 C-139.82242187 116.37738281 -140.64484375 115.75476563 -141.4921875 115.11328125 C-154.23019376 104.37922924 -158.80352959 88.17986931 -160.25 72.24609375 C-160.79906331 51.41600434 -153.68974146 32.51206499 -139.4921875 17.40625 C-101.17092781 -19.59358694 -46.54053863 -13.54002846 0 0 Z " fill="#EBDE8C" transform="translate(1937,514)"/>
<path d="M0 0 C22.09524754 -0.76986925 43.06841426 4.10353392 63.9921875 11.078125 C64.3221875 7.778125 64.6521875 4.478125 64.9921875 1.078125 C70.6021875 1.078125 76.2121875 1.078125 81.9921875 1.078125 C81.9921875 26.488125 81.9921875 51.898125 81.9921875 78.078125 C76.0521875 78.078125 70.1121875 78.078125 63.9921875 78.078125 C63.9096875 75.17 63.8271875 72.261875 63.7421875 69.265625 C63.19516619 57.29724612 60.62980253 47.81189159 51.9921875 39.078125 C33.98614989 23.59237259 11.04281748 19.84630386 -12.0078125 21.078125 C-23.84524813 22.12115529 -36.84432991 26.05700977 -45.1328125 35.015625 C-51.68636693 43.56661038 -55.21082662 53.25099796 -54.0078125 64.078125 C-51.77821317 74.6180491 -48.39745334 82.43175742 -39.25 88.4140625 C-32.41957257 92.66108273 -25.17684269 95.48761685 -17.6953125 98.328125 C-16.23854332 98.89162081 -14.78208718 99.45592651 -13.32592773 100.02099609 C-3.78603299 103.70701164 5.81398694 107.22092708 15.4296875 110.703125 C84.73118931 135.85242361 84.73118931 135.85242361 98.8046875 161.953125 C106.94877404 179.7270436 105.52715642 199.7904146 99.04223633 217.90087891 C96.1388342 225.48759072 92.18368803 231.8329989 86.9921875 238.078125 C86.31414062 238.91859375 85.63609375 239.7590625 84.9375 240.625 C67.67288931 260.98838697 41.49905955 272.87156892 15.20703125 275.44921875 C-12.44643465 277.69518552 -40.37356184 273.41901112 -65.7734375 262.21484375 C-69.08432621 261.05123431 -71.52919313 260.85148768 -75.0078125 261.078125 C-75.9978125 264.378125 -76.9878125 267.678125 -78.0078125 271.078125 C-82.6278125 271.078125 -87.2478125 271.078125 -92.0078125 271.078125 C-92.0078125 239.728125 -92.0078125 208.378125 -92.0078125 176.078125 C-86.3978125 176.078125 -80.7878125 176.078125 -75.0078125 176.078125 C-74.97042969 177.39425781 -74.93304688 178.71039062 -74.89453125 180.06640625 C-74.10208288 202.99938185 -67.27694824 218.81312293 -50.35205078 234.625 C-43.06463427 241.01492981 -35.09272391 245.65433376 -26.0078125 249.078125 C-24.70070313 249.58666016 -24.70070313 249.58666016 -23.3671875 250.10546875 C-4.46169079 256.10326522 19.41287153 252.65963074 37.24609375 244.546875 C47.5697993 239.02523448 54.88480457 232.55225789 58.8671875 221.390625 C61.45126269 211.44116183 61.23888682 201.0634903 55.9921875 192.078125 C47.06043551 178.29770764 30.27243206 173.61033554 15.65527344 168.39111328 C-2.42493671 161.91048344 -20.44855323 155.22909854 -38.27709961 148.08337402 C-39.60908075 147.55027917 -40.94236068 147.02041462 -42.27709961 146.4942627 C-62.73631406 138.40912804 -81.25718632 127.40204688 -90.90625 106.734375 C-98.31801833 88.86202583 -96.80094464 67.08035995 -89.53515625 49.33984375 C-83.3109414 35.87611659 -74.23412506 26.2837039 -62.0078125 18.078125 C-60.86119141 17.26601563 -60.86119141 17.26601563 -59.69140625 16.4375 C-42.65708064 5.18003264 -20.10414946 0.78226263 0 0 Z " fill="#EBDE8C" transform="translate(567.0078125,502.921875)"/>
<path d="M0 0 C7.66813985 7.18337238 14.15780872 16.46737917 15.0625 27.11328125 C15.29207788 38.02453758 14.32831441 47.2068672 6.5703125 55.55859375 C-2.95202329 63.83011424 -12.03826585 64.86813718 -24.17919922 64.33935547 C-31.4108059 63.72056329 -37.82009754 60.68028112 -43.01953125 55.65625 C-44.94448252 53.35950129 -45.48949476 52.18495792 -45.2734375 49.16015625 C-42.94191663 41.67474715 -38.65174106 38.96868397 -32.05078125 35.01953125 C-29.37214739 33.22624051 -27.86617419 31.93529747 -26.2734375 29.16015625 C-25.73676865 23.61457812 -25.9333704 19.81600736 -29.2734375 15.16015625 C-39.46276523 5.64546437 -54.19146517 5.4219458 -67.37890625 5.8203125 C-85.43254059 6.80441944 -101.62454025 15.80879092 -115.2734375 27.16015625 C-116.14613281 27.88074219 -117.01882813 28.60132813 -117.91796875 29.34375 C-133.18283553 42.49826654 -142.60080512 58.67915232 -147.2734375 78.16015625 C-147.45962646 78.93109619 -147.64581543 79.70203613 -147.83764648 80.49633789 C-149.63777522 88.98631808 -149.62790175 97.46405728 -149.5859375 106.09765625 C-149.58320328 107.25959503 -149.58320328 107.25959503 -149.58041382 108.44500732 C-149.45194766 140.87455309 -142.31131441 173.25251001 -118.8359375 197.03515625 C-105.40997422 210.17160048 -89.34980373 218.49954826 -71.2734375 223.16015625 C-70.32726563 223.40636719 -69.38109375 223.65257812 -68.40625 223.90625 C-42.45444449 229.35989029 -16.10855705 223.28338576 6.87109375 211.04296875 C8.7265625 210.16015625 8.7265625 210.16015625 10.7265625 210.16015625 C12.05078125 211.55078125 12.05078125 211.55078125 13.4140625 213.41015625 C13.87167969 214.0134375 14.32929687 214.61671875 14.80078125 215.23828125 C15.7265625 217.16015625 15.7265625 217.16015625 15.6875 219.07421875 C9.15163679 233.26182425 -13.55208681 243.18416615 -27.30761719 248.45361328 C-41.96364945 253.72119368 -56.8834561 255.53926072 -72.3984375 255.47265625 C-73.07464142 255.47083344 -73.75084534 255.46901062 -74.44754028 255.46713257 C-109.45071823 255.30887777 -141.28789073 244.11046248 -166.2734375 219.16015625 C-167.13582031 218.309375 -167.99820312 217.45859375 -168.88671875 216.58203125 C-184.53890581 200.32128326 -193.95989066 179.13654224 -198.2734375 157.16015625 C-198.49773437 156.05671875 -198.72203125 154.95328125 -198.953125 153.81640625 C-205.43775243 115.08630271 -196.85626895 75.16575364 -174.2734375 43.16015625 C-171.72140339 39.71981796 -169.05813325 36.41436465 -166.2734375 33.16015625 C-165.58765625 32.35191406 -164.901875 31.54367187 -164.1953125 30.7109375 C-127.73128808 -11.06529191 -48.33998642 -39.12050447 0 0 Z " fill="#EBDE8C" transform="translate(1388.2734375,520.83984375)"/>
<path d="M0 0 C9.9 0 19.8 0 30 0 C30 23.43 30 46.86 30 71 C35.94 70.505 35.94 70.505 42 70 C44.2891565 69.92601725 46.57977072 69.88158071 48.87011719 69.88647461 C50.07045593 69.88655014 51.27079468 69.88662567 52.50750732 69.88670349 C54.38324432 69.89444542 54.38324432 69.89444542 56.296875 69.90234375 C57.61165833 69.9037587 58.92644165 69.90517365 60.28106689 69.90663147 C63.73329663 69.91040299 67.18548257 69.92018567 70.63769531 69.93133545 C74.17772824 69.94166668 77.71776864 69.94620915 81.2578125 69.95117188 C88.17191336 69.96128021 95.08589481 69.98086502 102 70 C101.67 78.91 101.34 87.82 101 97 C77.57 97 54.14 97 30 97 C30.09074327 123.62507809 30.09074327 123.62507809 30.20898438 150.25 C30.26334383 161.11717181 30.31476201 171.98429771 30.34643555 182.8515625 C30.36952356 190.76830622 30.4030405 198.68492806 30.44870156 206.6015749 C30.47248924 210.78724745 30.49131209 214.97280039 30.49761391 219.15853882 C30.50373101 223.11158489 30.52396433 227.0643255 30.55427551 231.01725769 C30.56295106 232.45536667 30.56680057 233.89351575 30.56500816 235.33164978 C30.48502603 255.44899829 30.48502603 255.44899829 39 273 C44.87362702 278.87362702 50.54356998 281.12859283 58.75 281.375 C69.24683499 281.05890961 77.91434338 277.88232326 87.1875 273.109375 C90 272 90 272 92.2421875 272.1796875 C94 273 94 273 96.125 275.375 C97.35438378 280.46816136 95.58641906 282.77119788 92.9375 287.12890625 C83.19906927 301.55984695 70.61265057 313.12045688 53.3125 317.4375 C51.88027935 317.66179116 50.44155928 317.84680293 49 318 C47.58074219 318.19529297 47.58074219 318.19529297 46.1328125 318.39453125 C29.71690503 320.22075078 12.14488614 317.51098573 -1 307 C-1.68835938 306.45988281 -2.37671875 305.91976563 -3.0859375 305.36328125 C-14.15377174 295.58881461 -17.97093459 280.19796653 -19 266 C-19.14085751 260.4880498 -19.12664947 254.97780307 -19.11352539 249.46459961 C-19.11324295 247.79826865 -19.11340236 246.13193757 -19.1139679 244.46560669 C-19.11425366 239.96420607 -19.10839265 235.46283234 -19.10139394 230.96143794 C-19.09512361 226.24891596 -19.0945537 221.5363933 -19.09336853 216.8238678 C-19.09026604 207.90996264 -19.08206728 198.99606981 -19.07201904 190.08217007 C-19.06082425 179.92979828 -19.05533898 169.7774259 -19.05032361 159.62504947 C-19.03988373 138.75002611 -19.0223053 117.87501383 -19 97 C-19.70201035 97.02996567 -20.40402069 97.05993134 -21.12730408 97.09080505 C-24.36473731 97.22787068 -27.60228621 97.36199778 -30.83984375 97.49609375 C-31.94372437 97.54326538 -33.04760498 97.59043701 -34.18493652 97.63903809 C-43.46845267 98.02022463 -52.70938006 98.07807244 -62 98 C-62 92.72 -62 87.44 -62 82 C-57.47280229 80.20798424 -52.94666382 78.67582461 -48.27197266 77.30639648 C-32.09656235 72.50378872 -18.3534517 64.23276487 -10 49 C-3.03058934 33.18114692 -1.43593607 17.01031961 0 0 Z " fill="#EBDE8C" transform="translate(757,460)"/>
<path d="M0 0 C10.56407406 7.25705957 18.42875983 17.24607065 21.69140625 29.87109375 C23.62890759 42.456125 22.06227198 54.94537924 17.125 66.6875 C18.4553125 67.05875 18.4553125 67.05875 19.8125 67.4375 C28.76606924 70.81620537 35.25424378 79.17454313 39.125 87.6875 C41.75136853 94.78889453 41.33277831 102.21902408 41.125 109.6875 C38.04455007 108.30402359 35.83953095 106.67149475 33.375 104.375 C23.38880891 95.49633472 13.85129243 91.77023926 0.35546875 92.27734375 C-6.74634283 92.7954041 -13.25095031 95.24807343 -19.875 97.6875 C-49.01203458 108.22400726 -76.93733263 114.51144771 -106.61328125 101.2265625 C-109.69178464 100.49282594 -111.04775813 101.32451623 -113.875 102.6875 C-116.06069958 103.54626324 -118.24830175 104.40019535 -120.4375 105.25 C-121.55253906 105.68441406 -122.66757813 106.11882812 -123.81640625 106.56640625 C-134.64520715 110.53558359 -146.84035431 109.66469244 -157.65234375 106.05078125 C-160.46071784 104.328246 -160.97340716 102.79413133 -161.875 99.6875 C-158.2629152 96.0754152 -153.74152196 94.11517864 -148.875 92.6875 C-146.02377338 92.92240219 -143.47937986 93.55182003 -140.7109375 94.2578125 C-133.71326502 95.31806591 -126.41987412 91.92653588 -119.875 89.6875 C-119.215 89.6875 -118.555 89.6875 -117.875 89.6875 C-117.38 88.2025 -117.38 88.2025 -116.875 86.6875 C-116.111875 86.419375 -115.34875 86.15125 -114.5625 85.875 C-111.57994821 84.55712828 -110.67517302 83.25666652 -109.03515625 80.5078125 C-107.6616453 78.35274145 -106.06912929 76.46641284 -104.4375 74.5 C-97.92844828 66.16506868 -95.07073799 56.91642575 -92.875 46.6875 C-88.02580516 48.47448702 -84.12769119 50.58834824 -80.875 54.6875 C-80.62787253 57.77659332 -80.84216651 58.88111406 -81.875 61.6875 C-82.35066406 63.03714844 -82.35066406 63.03714844 -82.8359375 64.4140625 C-86.26249447 73.31391181 -91.10054891 81.12821857 -96.875 88.6875 C-94.81347611 89.33644237 -92.75073742 89.9815264 -90.6875 90.625 C-89.53894531 90.98464844 -88.39039063 91.34429687 -87.20703125 91.71484375 C-67.719142 97.40357109 -48.45023255 92.49356414 -30.96484375 83.12890625 C-18.09611373 75.40766824 -6.22633427 64.42900281 -1.3671875 49.8515625 C1.14830358 38.79138745 0.28974012 27.88580732 -4.8671875 17.734375 C-8.33803276 12.22889632 -13.55237196 9.12837601 -19.66796875 7.08984375 C-22.96557605 6.48868702 -26.28409756 6.31762292 -29.625 6.125 C-30.32238281 6.08181641 -31.01976562 6.03863281 -31.73828125 5.99414062 C-33.45031922 5.88860404 -35.16263561 5.7876009 -36.875 5.6875 C-36.38 6.61433594 -35.885 7.54117188 -35.375 8.49609375 C-33.59393217 12.28550109 -33.53560203 13.75301847 -34.875 17.6875 C-39.42303596 23.36366206 -44.5802271 24.48831016 -51.28125 26.359375 C-56.34800272 27.87940082 -59.4594863 29.41810788 -62.875 33.6875 C-63.205 34.6775 -63.535 35.6675 -63.875 36.6875 C-65.36 36.1925 -65.36 36.1925 -66.875 35.6875 C-69.10098976 30.35326844 -68.87712111 26.25408447 -67.375 20.8125 C-67.18776367 20.11068604 -67.00052734 19.40887207 -66.80761719 18.68579102 C-63.87226913 8.43222668 -57.83866206 0.83136932 -48.65625 -4.6328125 C-33.59011766 -11.45071416 -13.6966665 -8.2179999 0 0 Z " fill="#B69B61" transform="translate(1246.875,86.3125)"/>
<path d="M0 0 C6.70524093 5.07228355 11.54420438 13.46314962 12.9375 21.68359375 C13.73958036 33.68563258 13.73958036 33.68563258 11.41796875 36.57421875 C10.92941406 36.9403125 10.44085937 37.30640625 9.9375 37.68359375 C9.36 36.75546875 8.7825 35.82734375 8.1875 34.87109375 C4.39532364 29.49884391 0.70880572 28.10063481 -5.5625 26.62109375 C-15.46064282 24.22824175 -15.46064282 24.22824175 -18.8125 20.99609375 C-20.56733121 17.74965601 -20.3872892 15.32123275 -20.0625 11.68359375 C-19.44007427 10.32904274 -18.78134177 8.98953737 -18.0625 7.68359375 C-27.96454749 7.20829547 -36.98305424 6.80125893 -45.0859375 13.30859375 C-52.15035958 20.46243889 -54.25349897 29.43780299 -54.5625 39.24609375 C-54.23092953 50.06634334 -50.49543972 58.14443773 -44.0625 66.68359375 C-43.65773438 67.26496094 -43.25296875 67.84632813 -42.8359375 68.4453125 C-32.3581356 82.23358555 -11.67941627 91.83256954 4.9375 94.68359375 C18.08386734 95.97589099 30.26558243 94.11174536 42.9375 90.68359375 C42.36902344 89.93078125 41.80054688 89.17796875 41.21484375 88.40234375 C36.73485147 82.2395497 32.969831 76.18789698 29.9375 69.18359375 C29.64738037 68.51392578 29.35726074 67.84425781 29.05834961 67.15429688 C27.6177444 63.6978886 26.50740371 60.38796785 25.9375 56.68359375 C27.17946122 55.52905213 28.43142845 54.38526813 29.6875 53.24609375 C30.73164062 52.28896484 30.73164062 52.28896484 31.796875 51.3125 C33.92542725 49.6927805 35.32773405 49.10092119 37.9375 48.68359375 C38.37449219 50.11638672 38.37449219 50.11638672 38.8203125 51.578125 C43.76162024 67.36365541 51.54033661 82.64254589 66.23046875 91.5625 C74.86891311 95.14003756 84.96483888 96.98934762 93.95703125 93.93359375 C95.9375 93.68359375 95.9375 93.68359375 98.05859375 95.078125 C98.67863281 95.60792969 99.29867187 96.13773437 99.9375 96.68359375 C102.08483927 97.38874221 102.08483927 97.38874221 103.9375 97.68359375 C103.9375 98.34359375 103.9375 99.00359375 103.9375 99.68359375 C105.2575 100.01359375 106.5775 100.34359375 107.9375 100.68359375 C107.70703125 102.546875 107.70703125 102.546875 106.9375 104.68359375 C105.01171875 105.9140625 105.01171875 105.9140625 102.625 106.87109375 C101.84511719 107.19464844 101.06523438 107.51820313 100.26171875 107.8515625 C89.66929511 111.64347214 76.79300718 110.79972954 66.40234375 106.8515625 C64.18966704 105.80308336 62.3161396 104.63892405 60.3125 103.24609375 C55.95257528 101.22761008 54.25560433 102.02094623 49.88671875 103.61328125 C46.39092709 104.88195266 42.84141793 105.85750679 39.25 106.80859375 C38.02925781 107.14117187 36.80851563 107.47375 35.55078125 107.81640625 C7.68222869 114.50485887 -17.25254245 105.28238606 -43.04833984 95.7434082 C-52.44175079 92.44057353 -63.91907218 91.99210511 -73.3125 95.55859375 C-79.2247577 98.39615035 -84.28827458 102.35017263 -89.34765625 106.4765625 C-92.0625 108.68359375 -92.0625 108.68359375 -95.0625 110.68359375 C-95.62936451 98.13384326 -95.03028615 87.67053588 -86.76953125 77.46484375 C-82.48065636 72.98949604 -77.36712254 69.81856132 -72.0625 66.68359375 C-72.33964844 65.74257812 -72.61679687 64.8015625 -72.90234375 63.83203125 C-73.26457031 62.58679688 -73.62679687 61.3415625 -74 60.05859375 C-74.35964844 58.82882813 -74.71929688 57.5990625 -75.08984375 56.33203125 C-78.57576869 43.25631281 -77.57771511 31.04522616 -71.3125 18.93359375 C-63.71448039 6.00395646 -52.42053547 -2.00901158 -37.90234375 -5.89453125 C-24.47804419 -7.88878758 -11.62076374 -7.41704049 0 0 Z " fill="#B0935A" transform="translate(804.0625,85.31640625)"/>
<path d="M0 0 C6.30879303 5.29288433 11.99755812 11.87783926 15.75 19.25 C14.75 22.25 14.75 22.25 13.04296875 23.41796875 C12.34816406 23.75441406 11.65335938 24.09085938 10.9375 24.4375 C10.25042969 24.78167969 9.56335938 25.12585938 8.85546875 25.48046875 C6.75 26.25 6.75 26.25 2.75 26.25 C1.1875 24.640625 1.1875 24.640625 -0.25 22.5 C-2.38016717 19.45072517 -4.50354392 16.78519022 -7.25 14.25 C-7.39695312 14.92546875 -7.54390625 15.6009375 -7.6953125 16.296875 C-8.80862988 20.72455101 -9.59566449 23.59566449 -12.875 26.875 C-20.56754769 30.00900091 -27.70734806 28.06515661 -35.25 25.25 C-38.54982 23.61196223 -41.67691522 21.74348255 -44.8125 19.8125 C-58.75687703 11.33605753 -71.683971 5.89797676 -88.1875 9.3125 C-97.15040607 11.76730867 -104.2242664 16.6525191 -109.00390625 24.6953125 C-113.2778349 33.45753613 -114.75895766 41.94828871 -114.74731445 51.6015625 C-114.83161824 56.80292391 -114.83161824 56.80292391 -117.015625 59.13671875 C-120.36558355 60.80584145 -123.71514409 62.01280043 -127.25 63.25 C-129.12242255 61.37757745 -128.41800404 58.23022527 -128.43945312 55.70800781 C-128.43880859 54.81436523 -128.43816406 53.92072266 -128.4375 53 C-128.43814453 52.09862305 -128.43878906 51.19724609 -128.43945312 50.26855469 C-128.38314085 43.0938587 -127.6890334 36.29098484 -126.25 29.25 C-126.86617187 29.12109375 -127.48234375 28.9921875 -128.1171875 28.859375 C-131.81002214 27.80427939 -133.64336905 25.31160416 -135.5 22.0625 C-136.55409571 18.10964107 -136.40945331 14.31605938 -136.25 10.25 C-135.23292969 10.31960937 -135.23292969 10.31960937 -134.1953125 10.390625 C-133.26460937 10.42671875 -132.33390625 10.4628125 -131.375 10.5 C-130.01761719 10.56960937 -130.01761719 10.56960937 -128.6328125 10.640625 C-120.00079947 9.64385675 -112.75936643 4.94163754 -105.5625 0.375 C-74.12352538 -18.98716492 -30.97508628 -23.42018718 0 0 Z " fill="#C8B274" transform="translate(955.25,63.75)"/>
<path d="M0 0 C6.6 0 13.2 0 20 0 C24.21063486 9.78054701 27.80832527 19.69997184 31.3125 29.75 C31.86751728 31.33344598 32.42285377 32.9167801 32.97851562 34.5 C34.3226851 38.33205692 35.66255651 42.16559071 37 46 C38.64715107 43.52927339 39.68551757 41.53565798 40.77172852 38.81982422 C41.10870255 37.98240692 41.44567657 37.14498962 41.79286194 36.28219604 C42.15125656 35.38211823 42.50965118 34.48204041 42.87890625 33.5546875 C43.25103745 32.62907013 43.62316864 31.70345276 44.00657654 30.74978638 C45.19510855 27.79280616 46.37920441 24.8340792 47.5625 21.875 C48.74965899 18.90890088 49.93781156 15.94321932 51.12913513 12.97879028 C51.87063119 11.13350493 52.609673 9.28723122 53.34608459 7.43991089 C53.8468174 6.19324142 53.8468174 6.19324142 54.35766602 4.92138672 C54.65141617 4.18653046 54.94516632 3.45167419 55.24781799 2.69454956 C56 1 56 1 57 0 C58.41570123 -0.08651611 59.835595 -0.10704904 61.25390625 -0.09765625 C62.53491211 -0.09282227 62.53491211 -0.09282227 63.84179688 -0.08789062 C65.18854492 -0.07532227 65.18854492 -0.07532227 66.5625 -0.0625 C67.46419922 -0.05798828 68.36589844 -0.05347656 69.29492188 -0.04882812 C71.53001314 -0.03700225 73.76497437 -0.0205222 76 0 C76 1.32 76 2.64 76 4 C73.03 4 70.06 4 67 4 C67 23.47 67 42.94 67 63 C69.97 63 72.94 63 76 63 C76 64.32 76 65.64 76 67 C67.09 67 58.18 67 49 67 C49 65.68 49 64.36 49 63 C51.97 63 54.94 63 58 63 C57.67 46.5 57.34 30 57 13 C50.07 30.16 43.14 47.32 36 65 C34.68 65 33.36 65 32 65 C26.06 48.5 20.12 32 14 15 C13.95875 22.38375 13.9175 29.7675 13.875 37.375 C13.84768799 40.8716626 13.84768799 40.8716626 13.81982422 44.43896484 C13.81398488 46.27962005 13.808888 48.12027783 13.8046875 49.9609375 C13.79445557 50.92233643 13.78422363 51.88373535 13.77368164 52.87426758 C13.77343994 53.78764893 13.77319824 54.70103027 13.77294922 55.64208984 C13.768508 56.43706879 13.76406677 57.23204773 13.75949097 58.05111694 C13.82631697 60.23643491 13.82631697 60.23643491 16 62 C17.98821313 62.39764263 19.98944339 62.73775349 22 63 C22 64.32 22 65.64 22 67 C14.41 67 6.82 67 -1 67 C-1 65.68 -1 64.36 -1 63 C0.11375 62.79375 1.2275 62.5875 2.375 62.375 C6.11605856 61.4176964 6.11605856 61.4176964 7.21435547 58.64794922 C8.32443533 53.49356349 8.24534678 48.51492639 8.1953125 43.2578125 C8.19106766 41.57254959 8.19106766 41.57254959 8.18673706 39.85324097 C8.17557303 36.27705073 8.15047501 32.7011141 8.125 29.125 C8.11496533 26.69531613 8.10584033 24.26562831 8.09765625 21.8359375 C8.07564604 15.89053898 8.04220589 9.94528761 8 4 C5.36 4 2.72 4 0 4 C0 2.68 0 1.36 0 0 Z " fill="#EBDE8C" transform="translate(785,989)"/>
<path d="M0 0 C5.22862331 -0.09968046 10.45668044 -0.17184747 15.68603516 -0.21972656 C17.46087289 -0.23970839 19.23564594 -0.26690355 21.01025391 -0.30175781 C43.02838022 -0.72303879 43.02838022 -0.72303879 50.5 6.375 C53.95194566 12.41590491 54.6418936 17.27547988 53 24 C50.33924634 29.423844 47.32029322 31.52331178 42 34 C40.00719528 34.37395246 38.00737852 34.71444334 36 35 C38.85780769 39.03314822 41.73160856 43.05414038 44.61865234 47.06640625 C45.91294833 48.87814613 47.18667649 50.7026855 48.45703125 52.53125 C49.21371094 53.5934375 49.97039062 54.655625 50.75 55.75 C51.42546875 56.71421875 52.1009375 57.6784375 52.796875 58.671875 C55.36778511 61.38865235 57.4077482 62.11733241 61 63 C61 64.32 61 65.64 61 67 C53.41 67 45.82 67 38 67 C38 65.68 38 64.36 38 63 C38.99 62.67 39.98 62.34 41 62 C40.27554687 60.94941406 39.55109375 59.89882812 38.8046875 58.81640625 C38.33893311 58.139729 37.87317871 57.46305176 37.39331055 56.76586914 C36.37872259 55.29350118 35.36194586 53.82263914 34.34301758 52.35327148 C31.21980897 47.83538782 28.23740752 43.27612545 25.51171875 38.50390625 C23.63184528 36.34342586 23.63184528 36.34342586 18 36 C18.33 44.91 18.66 53.82 19 63 C21.64 63 24.28 63 27 63 C27 64.32 27 65.64 27 67 C18.09 67 9.18 67 0 67 C0 65.68 0 64.36 0 63 C2.97 63 5.94 63 9 63 C9 43.53 9 24.06 9 4 C6.03 4 3.06 4 0 4 C0 2.68 0 1.36 0 0 Z M18 5 C17.91241997 6.99964982 17.89303424 9.0023611 17.90234375 11.00390625 C17.90556641 12.21884766 17.90878906 13.43378906 17.91210938 14.68554688 C17.92048828 15.96494141 17.92886719 17.24433594 17.9375 18.5625 C17.94201172 19.84576172 17.94652344 21.12902344 17.95117188 22.45117188 C17.96300455 25.63416022 17.97948932 28.81705762 18 32 C19.90613757 32.03225945 21.8124345 32.05518422 23.71875 32.07421875 C24.78029297 32.08799561 25.84183594 32.10177246 26.93554688 32.1159668 C32.37096282 31.91027666 36.27046293 30.50780155 40.4375 26.875 C43.31764055 21.57554138 43.54631619 16.96031104 41.9375 11.1875 C39.65071686 7.42537289 37.86186136 6.08773479 34 4 C30.15069006 3.48264696 30.15069006 3.48264696 26.1875 3.6875 C25.1675293 3.70200195 25.1675293 3.70200195 24.12695312 3.71679688 C20.7767318 3.53308749 20.7767318 3.53308749 18 5 Z " fill="#EBDE8B" transform="translate(1289,989)"/>
<path d="M0 0 C5.26526855 -0.07457346 10.53022455 -0.12880098 15.79589844 -0.16479492 C17.58436443 -0.17981184 19.37279403 -0.20023158 21.16113281 -0.22631836 C23.74293031 -0.26301615 26.32423779 -0.27979745 28.90625 -0.29296875 C29.69616333 -0.30845261 30.48607666 -0.32393646 31.29992676 -0.33988953 C38.09183221 -0.34191403 43.60980914 0.92157316 48.875 5.5 C53.30665609 10.71371305 53.51171727 14.06925989 53.35546875 20.765625 C52.94511526 24.49939082 52.34489368 26.71996395 49.91015625 29.56640625 C45.77097701 32.67290683 40.85246791 34.32059723 36 36 C36.3623877 36.47308594 36.72477539 36.94617187 37.09814453 37.43359375 C38.77417275 39.62208239 40.44958886 41.81103892 42.125 44 C42.69476562 44.74378906 43.26453125 45.48757813 43.8515625 46.25390625 C44.41875 46.99511719 44.9859375 47.73632812 45.5703125 48.5 C46.14088379 49.24314453 46.71145508 49.98628906 47.29931641 50.75195312 C48.43454628 52.25255557 49.55152413 53.76713921 50.64990234 55.29492188 C51.16762207 56.01228516 51.6853418 56.72964844 52.21875 57.46875 C52.67443359 58.11263672 53.13011719 58.75652344 53.59960938 59.41992188 C55.69242083 61.78126701 57.96550951 62.42200181 61 63 C61 64.32 61 65.64 61 67 C53.41 67 45.82 67 38 67 C38 65.68 38 64.36 38 63 C38.99 62.67 39.98 62.34 41 62 C40.52054932 61.31897217 40.04109863 60.63794434 39.54711914 59.9362793 C37.76812455 57.40562118 35.99245227 54.87267516 34.21899414 52.33813477 C33.07367613 50.70345141 31.92455106 49.07143759 30.77539062 47.43945312 C30.05673828 46.41142578 29.33808594 45.38339844 28.59765625 44.32421875 C27.93258057 43.37635498 27.26750488 42.42849121 26.58227539 41.4519043 C25 39 25 39 24 36 C22.02 36 20.04 36 18 36 C18 44.91 18 53.82 18 63 C20.97 63 23.94 63 27 63 C27 64.32 27 65.64 27 67 C18.09 67 9.18 67 0 67 C0 65.68 0 64.36 0 63 C2.97 63 5.94 63 9 63 C9 43.53 9 24.06 9 4 C6.03 4 3.06 4 0 4 C0 2.68 0 1.36 0 0 Z M18 4 C18 13.24 18 22.48 18 32 C30.38911478 32.47828645 30.38911478 32.47828645 40.4375 26.875 C43.31764055 21.57554138 43.54631619 16.96031104 41.9375 11.1875 C39.64127375 7.40983745 37.89210711 6.07787578 34 4 C31.17723369 3.5488983 28.47362199 3.6171231 25.625 3.75 C23.10875 3.8325 20.5925 3.915 18 4 Z " fill="#EBDE8B" transform="translate(1003,989)"/>
<path d="M0 0 C5.22864743 -0.07476069 10.45697628 -0.12888763 15.68603516 -0.16479492 C17.46082996 -0.17978093 19.23558837 -0.20017682 21.01025391 -0.22631836 C44.79278715 -0.56759838 44.79278715 -0.56759838 54.17578125 6.98828125 C62.75346751 16.44761407 63.70862907 27.86365647 63.17480469 39.96191406 C62.46262424 48.2653811 57.56120572 55.07531678 52 61 C45.23543747 66.38403956 39.01792383 67.29748669 30.6640625 67.1953125 C29.34503433 67.19106766 29.34503433 67.19106766 27.99935913 67.18673706 C25.20776406 67.17559712 22.4164971 67.15050411 19.625 67.125 C17.72526507 67.1149622 15.82552508 67.10583775 13.92578125 67.09765625 C9.28372893 67.07567806 4.64191998 67.0411911 0 67 C0 65.68 0 64.36 0 63 C2.97 63 5.94 63 9 63 C9 43.53 9 24.06 9 4 C6.03 4 3.06 4 0 4 C0 2.68 0 1.36 0 0 Z M19 4 C19 23.47 19 42.94 19 63 C33.19123831 64.41541922 33.19123831 64.41541922 45 58 C50.81453357 50.75196647 52.38360132 42.77696727 52.3125 33.6875 C52.30831055 32.94910889 52.30412109 32.21071777 52.29980469 31.44995117 C52.12715838 23.02793347 50.82269781 14.45217866 45 8 C35.80743041 2.65835921 35.80743041 2.65835921 19 4 Z " fill="#EBDE8C" transform="translate(1642,989)"/>
<path d="M0 0 C18.48 0 36.96 0 56 0 C56 6.6 56 13.2 56 20 C54.68 20 53.36 20 52 20 C51.8040625 19.25234375 51.608125 18.5046875 51.40625 17.734375 C51.1071875 16.74953125 50.808125 15.7646875 50.5 14.75 C50.2215625 13.77546875 49.943125 12.8009375 49.65625 11.796875 C47.2576492 7.74640762 44.43914606 6.37246326 40 5 C36.32563818 4.43692666 32.71293086 4.30728388 29 4.25 C24.05 4.12625 24.05 4.12625 19 4 C19 12.91 19 21.82 19 31 C27.5767765 30.4731181 27.5767765 30.4731181 36 29 C36.66 25.7 37.32 22.4 38 19 C39.32 19 40.64 19 42 19 C42 28.24 42 37.48 42 47 C40.68 47 39.36 47 38 47 C37.80664062 46.37351562 37.61328125 45.74703125 37.4140625 45.1015625 C37.15367187 44.28429688 36.89328125 43.46703125 36.625 42.625 C36.36976563 41.81289062 36.11453125 41.00078125 35.8515625 40.1640625 C35.10145717 37.83540815 35.10145717 37.83540815 33 36 C28.34332856 35.40814488 23.69067934 35.25585524 19 35 C19 44.24 19 53.48 19 63 C34.12894476 63.18125999 34.12894476 63.18125999 48 58 C52.07824545 53.61588615 53.02975862 48.7448503 54 43 C55.32 43 56.64 43 58 43 C58.02712325 45.87506421 58.04689851 48.74986908 58.0625 51.625 C58.07087891 52.43324219 58.07925781 53.24148438 58.08789062 54.07421875 C58.09111328 54.86699219 58.09433594 55.65976563 58.09765625 56.4765625 C58.10289307 57.19924316 58.10812988 57.92192383 58.11352539 58.66650391 C57.97734286 61.46571381 57.46073155 64.2356107 57 67 C38.19 67 19.38 67 0 67 C0 65.68 0 64.36 0 63 C2.97 63 5.94 63 9 63 C9 43.53 9 24.06 9 4 C6.03 4 3.06 4 0 4 C0 2.68 0 1.36 0 0 Z " fill="#EBDE8C" transform="translate(367,989)"/>
<path d="M0 0 C6.99745924 5.44394362 11.6426884 13.87829379 12.87109375 22.6640625 C13.7975423 35.54321618 12.50892986 47.58866844 3.80859375 57.7890625 C-3.25504688 64.62484376 -9.90441615 66.03078022 -19.546875 65.94140625 C-27.31770798 65.3397387 -34.06000703 61.57979452 -39.12890625 55.6640625 C-46.6874955 43.9081528 -48.32780421 31.14338191 -45.4453125 17.40625 C-44.52571826 14.97180549 -43.49579129 12.87569947 -42.12890625 10.6640625 C-41.69320313 9.94089844 -41.2575 9.21773437 -40.80859375 8.47265625 C-36.65788436 2.31463659 -31.60193512 -0.98531516 -24.75390625 -3.6484375 C-15.9095004 -5.32582482 -7.75639466 -4.86731555 0 0 Z M-30.37890625 6.0390625 C-36.95308603 17.31718126 -36.52176179 33.74910696 -33.875 46.125 C-32.11533503 52.11338866 -29.87646665 57.11018212 -24.25390625 60.2265625 C-19.19762169 62.29849865 -15.09346932 62.39595855 -9.94140625 60.4765625 C-4.01920391 56.6600321 -1.16293462 51.04005992 0.44042969 44.25463867 C1.17393309 39.84239114 1.09717642 35.44013443 1.12109375 30.9765625 C1.14171875 30.03361328 1.16234375 29.09066406 1.18359375 28.11914062 C1.23221716 19.27575735 -0.2136297 10.56521848 -6.12890625 3.6640625 C-10.12033582 0.40575265 -13.98167309 -1.01891617 -19.14453125 -0.71875 C-23.91995328 0.20249283 -27.08260288 2.55963117 -30.37890625 6.0390625 Z " fill="#EBDE8C" transform="translate(1590.12890625,991.3359375)"/>
<path d="M0 0 C18.15 0 36.3 0 55 0 C55 6.6 55 13.2 55 20 C53.68 20 52.36 20 51 20 C50.84144531 19.32453125 50.68289063 18.6490625 50.51953125 17.953125 C49.02820797 12.1817276 49.02820797 12.1817276 45.5625 7.4375 C41.72884544 5.2869133 38.37283863 4.86957238 34.015625 4.68359375 C32.75153809 4.62643188 32.75153809 4.62643188 31.46191406 4.56811523 C30.40198242 4.52501221 29.34205078 4.48190918 28.25 4.4375 C23.17625 4.2209375 23.17625 4.2209375 18 4 C18 12.91 18 21.82 18 31 C29.7995099 30.91465912 29.7995099 30.91465912 35 28 C35.91160093 25.82791412 35.91160093 25.82791412 36.25 23.375 C36.39953125 22.55773437 36.5490625 21.74046875 36.703125 20.8984375 C36.80109375 20.27195312 36.8990625 19.64546875 37 19 C38.32 19 39.64 19 41 19 C41 28.24 41 37.48 41 47 C39.68 47 38.36 47 37 47 C36.57682292 45.01432292 36.15364583 43.02864583 35.73046875 41.04296875 C34.82901792 38.52179878 34.22508094 37.52047198 32 36 C27.33704782 35.28888622 22.72072924 35.21654721 18 35 C18 44.24 18 53.48 18 63 C21.114375 62.9175 24.22875 62.835 27.4375 62.75 C28.39970459 62.73420898 29.36190918 62.71841797 30.35327148 62.70214844 C36.46531481 62.46517502 41.80069288 61.36897317 47 58 C50.8503118 53.53418543 52.69648478 48.6880664 54 43 C55.32 43 56.64 43 58 43 C57.67 50.92 57.34 58.84 57 67 C38.19 67 19.38 67 0 67 C0 65.68 0 64.36 0 63 C2.97 63 5.94 63 9 63 C9 43.53 9 24.06 9 4 C6.03 4 3.06 4 0 4 C0 2.68 0 1.36 0 0 Z " fill="#EBDE8B" transform="translate(1193,989)"/>
<path d="M0 0 C3.18552081 -0.29307693 6.36757755 -0.46871449 9.5625 -0.625 C10.90538086 -0.75068359 10.90538086 -0.75068359 12.27539062 -0.87890625 C15.12985905 -0.98346553 17.27465275 -0.87410058 20 0 C23.0610675 2.90294971 24.93020052 6.35208671 27 10 C28.30360075 12.02528709 29.6164058 14.04467398 30.9375 16.05859375 C32.29387221 18.18348959 33.64801633 20.30980922 35 22.4375 C35.67289063 23.49259766 36.34578125 24.54769531 37.0390625 25.63476562 C39.02835889 28.7550423 41.0145575 31.87726998 43 35 C44.33326954 37.09509268 45.66659902 39.19014722 47 41.28515625 C48.00002106 42.85675743 49.00002949 44.42836666 50 46 C50.04947953 40.80388779 50.08575727 35.60791309 50.10986328 30.41162109 C50.11991384 28.64434418 50.13355642 26.87708387 50.15087891 25.10986328 C50.17516885 22.56799215 50.18649255 20.02634111 50.1953125 17.484375 C50.20563507 16.69569031 50.21595764 15.90700562 50.22659302 15.09442139 C50.30950717 9.69523605 50.30950717 9.69523605 48 5 C44.94091587 4.18415432 44.94091587 4.18415432 42 4 C42 2.68 42 1.36 42 0 C49.26 0 56.52 0 64 0 C64 1.32 64 2.64 64 4 C62.865625 4.28875 61.73125 4.5775 60.5625 4.875 C59.386875 5.24625 58.21125 5.6175 57 6 C55.65551267 8.68897467 55.83804236 10.81591649 55.79467773 13.82666016 C55.77473251 15.04777496 55.75478729 16.26888977 55.73423767 17.52700806 C55.71725344 18.86435823 55.70037463 20.20170975 55.68359375 21.5390625 C55.66302397 22.90384553 55.64202749 24.26862218 55.62062073 25.63339233 C55.56540241 29.22707973 55.51599213 32.8208246 55.46777344 36.41461182 C55.41755663 40.08114746 55.36187151 43.74759956 55.30664062 47.4140625 C55.199062 54.60930426 55.09761643 61.80461546 55 69 C51.16116333 68.17553711 51.16116333 68.17553711 49.71069336 66.59570312 C49.34081299 65.99693359 48.97093262 65.39816406 48.58984375 64.78125 C48.1633252 64.10537842 47.73680664 63.42950684 47.29736328 62.7331543 C46.62423096 61.62774292 46.62423096 61.62774292 45.9375 60.5 C44.95472664 58.93340579 43.97164546 57.36700465 42.98828125 55.80078125 C42.49021973 54.99850098 41.9921582 54.1962207 41.47900391 53.36962891 C39.23857437 49.7800599 36.93169105 46.234697 34.625 42.6875 C33.72115931 41.29049063 32.81751791 39.89335231 31.9140625 38.49609375 C29.78892469 35.21413282 27.65749336 31.93632501 25.5234375 28.66015625 C24.93739746 27.76014893 24.35135742 26.8601416 23.74755859 25.93286133 C22.60805165 24.18348415 21.46778825 22.43459942 20.32666016 20.6862793 C19.8063623 19.88746338 19.28606445 19.08864746 18.75 18.265625 C18.29109375 17.56211914 17.8321875 16.85861328 17.359375 16.13378906 C15.86099325 13.78180334 14.42531725 11.39683864 13 9 C12.94931019 15.90507881 12.91427073 22.81010966 12.89013672 29.71533203 C12.88007616 32.06463413 12.86642627 34.41392369 12.84912109 36.76318359 C12.82487548 40.13902885 12.81351741 43.5147086 12.8046875 46.890625 C12.79436493 47.94179504 12.78404236 48.99296509 12.77340698 50.07598877 C12.77318039 51.54706085 12.77318039 51.54706085 12.77294922 53.04785156 C12.768508 53.90944885 12.76406677 54.77104614 12.75949097 55.65875244 C13.02602102 58.25330294 13.53417638 59.84385349 15 62 C18.05908413 62.81584568 18.05908413 62.81584568 21 63 C21 64.32 21 65.64 21 67 C13.74 67 6.48 67 -1 67 C-1 65.68 -1 64.36 -1 63 C0.134375 62.71125 1.26875 62.4225 2.4375 62.125 C3.613125 61.75375 4.78875 61.3825 6 61 C7.27469407 58.45061185 7.12016184 56.66959002 7.11352539 53.81591797 C7.11344986 52.73494843 7.11337433 51.65397888 7.11329651 50.54025269 C7.10813522 49.36939117 7.10297394 48.19852966 7.09765625 46.9921875 C7.0962413 45.79643097 7.09482635 44.60067444 7.09336853 43.36868286 C7.08775663 39.53743013 7.07520208 35.70623516 7.0625 31.875 C7.05748653 29.28255293 7.05292336 26.69010494 7.04882812 24.09765625 C7.03778333 17.73175102 7.02103359 11.36587963 7 5 C4.69 4.67 2.38 4.34 0 4 C0 2.68 0 1.36 0 0 Z " fill="#EBDE8C" transform="translate(167,989)"/>
<path d="M0 0 C0.43699219 1.43279297 0.43699219 1.43279297 0.8828125 2.89453125 C5.82412024 18.68006166 13.60283661 33.95895214 28.29296875 42.87890625 C36.93141311 46.45644381 47.02733888 48.30575387 56.01953125 45.25 C58 45 58 45 60.12109375 46.39453125 C60.74113281 46.92433594 61.36117187 47.45414063 62 48 C64.14733927 48.70514846 64.14733927 48.70514846 66 49 C66 49.66 66 50.32 66 51 C67.98 51.495 67.98 51.495 70 52 C69.76953125 53.86328125 69.76953125 53.86328125 69 56 C67.07421875 57.23046875 67.07421875 57.23046875 64.6875 58.1875 C63.90761719 58.51105469 63.12773438 58.83460938 62.32421875 59.16796875 C50.89413813 63.25974551 36.86110383 62.11955114 26 57 C7.03574894 47.50344201 -3.78448083 32.41318252 -11 13 C-11.38346054 11.34414768 -11.74155248 9.67990886 -12 8 C-10.71064081 6.85157077 -9.41843421 5.70633773 -8.125 4.5625 C-7.04605469 3.60537109 -7.04605469 3.60537109 -5.9453125 2.62890625 C-3.83529848 0.86208728 -2.76919975 0 0 0 Z " fill="#B79D62" transform="translate(842,134)"/>
<path d="M0 0 C1.65 0 3.3 0 5 0 C7.57397553 7.18467398 10.14209526 14.37142237 12.7038269 21.56047058 C14.01729928 25.24608255 15.33271245 28.93098479 16.65136719 32.61474609 C18.04282258 36.50248778 19.42936965 40.39195107 20.81286621 44.28253174 C21.35392119 45.80147874 21.89664419 47.31983262 22.44104004 48.83758545 C23.20729558 50.97481617 23.96760099 53.11407638 24.7265625 55.25390625 C25.16564941 56.48439697 25.60473633 57.7148877 26.05712891 58.98266602 C27 62 27 62 27 65 C29.64 65 32.28 65 35 65 C35 66.32 35 67.64 35 69 C26.42 69 17.84 69 9 69 C9 67.68 9 66.36 9 65 C11.97 64.505 11.97 64.505 15 64 C14.45859375 62.41058594 14.45859375 62.41058594 13.90625 60.7890625 C13.43734207 59.40109501 12.96860069 58.01307125 12.5 56.625 C12.26152344 55.92632813 12.02304687 55.22765625 11.77734375 54.5078125 C10 49.2265625 10 49.2265625 10 47 C2.41 47 -5.18 47 -13 47 C-13.33 48.65 -13.66 50.3 -14 52 C-14.49143587 53.34444633 -15.01118648 54.67897822 -15.5625 56 C-16.78292581 59.12808169 -17.31852568 61.60239272 -17 65 C-15.02 65 -13.04 65 -11 65 C-11 66.32 -11 67.64 -11 69 C-18.26 69 -25.52 69 -33 69 C-33 67.68 -33 66.36 -33 65 C-31.39125 64.690625 -31.39125 64.690625 -29.75 64.375 C-25.36057947 62.7655458 -24.07007923 60.96870676 -22 57 C-20.46114872 53.46085508 -19.13194639 49.85627426 -17.8125 46.23046875 C-17.42811768 45.19489334 -17.04373535 44.15931793 -16.64770508 43.09236145 C-15.42446974 39.7933982 -14.2116869 36.49072043 -13 33.1875 C-11.78663906 29.89564307 -10.57102426 26.6046468 -9.35229492 23.31477356 C-8.59635075 21.27251812 -7.84371084 19.22903541 -7.0949707 17.18412781 C-4.94239931 11.34976139 -2.60721157 5.64631634 0 0 Z M-1 17 C-2.50855339 20.6006459 -4.00535824 24.20605959 -5.5 27.8125 C-6.14388672 29.34874023 -6.14388672 29.34874023 -6.80078125 30.91601562 C-7.20683594 31.89892578 -7.61289062 32.88183594 -8.03125 33.89453125 C-8.40830078 34.80050049 -8.78535156 35.70646973 -9.17382812 36.63989258 C-10.16519913 39.05516525 -10.16519913 39.05516525 -10 42 C-4.06 42 1.88 42 8 42 C5.54258108 33.59304054 2.79908648 25.29768718 0 17 C-0.33 17 -0.66 17 -1 17 Z " fill="#EBDE8C" transform="translate(933,987)"/>
<path d="M0 0 C1.2065625 0.0309375 1.2065625 0.0309375 2.4375 0.0625 C3.36462718 2.70962007 4.29171118 5.35675524 5.21875 8.00390625 C5.50825531 8.83058304 5.79776062 9.65725983 6.09603882 10.50898743 C8.64830255 17.79764974 11.19802311 25.08720038 13.74734497 32.37689209 C15.54277677 37.50952011 17.34307919 42.64038681 19.1484375 47.76953125 C19.86982265 49.82550996 20.59117999 51.88149843 21.3125 53.9375 C21.63927734 54.86119385 21.96605469 55.7848877 22.30273438 56.73657227 C22.59212891 57.56342529 22.88152344 58.39027832 23.1796875 59.2421875 C23.4257373 59.94069824 23.67178711 60.63920898 23.92529297 61.35888672 C24.4375 63.0625 24.4375 63.0625 24.4375 65.0625 C26.7475 65.0625 29.0575 65.0625 31.4375 65.0625 C31.4375 66.3825 31.4375 67.7025 31.4375 69.0625 C23.1875 69.0625 14.9375 69.0625 6.4375 69.0625 C6.4375 67.7425 6.4375 66.4225 6.4375 65.0625 C9.4075 64.5675 9.4075 64.5675 12.4375 64.0625 C11.89609375 62.47308594 11.89609375 62.47308594 11.34375 60.8515625 C10.87484207 59.46359501 10.40610069 58.07557125 9.9375 56.6875 C9.69902344 55.98882813 9.46054688 55.29015625 9.21484375 54.5703125 C7.4375 49.2890625 7.4375 49.2890625 7.4375 47.0625 C-0.1525 47.0625 -7.7425 47.0625 -15.5625 47.0625 C-18.15003468 55.56808535 -18.15003468 55.56808535 -19.5625 64.0625 C-17.5825 64.3925 -15.6025 64.7225 -13.5625 65.0625 C-13.5625 66.3825 -13.5625 67.7025 -13.5625 69.0625 C-20.8225 69.0625 -28.0825 69.0625 -35.5625 69.0625 C-35.5625 67.7425 -35.5625 66.4225 -35.5625 65.0625 C-34.469375 64.815 -33.37625 64.5675 -32.25 64.3125 C-28.28231268 62.96752125 -27.6921585 62.44241852 -25.5625 59.0625 C-24.55483916 56.95467984 -24.55483916 56.95467984 -23.74072266 54.68383789 C-23.41673492 53.82516617 -23.09274719 52.96649445 -22.75894165 52.08180237 C-22.41825653 51.15890915 -22.07757141 50.23601593 -21.7265625 49.28515625 C-21.18471817 47.84166054 -21.18471817 47.84166054 -20.63192749 46.3690033 C-19.47762767 43.28993162 -18.33235971 40.20759258 -17.1875 37.125 C-16.42509224 35.08505722 -15.66207759 33.04534116 -14.8984375 31.00585938 C-13.43638109 27.09965896 -11.97587686 23.1928847 -10.51660156 19.28564453 C-8.88243426 14.91466664 -7.24395951 10.54558623 -5.5859375 6.18359375 C-5.21130371 5.19673584 -4.83666992 4.20987793 -4.45068359 3.19311523 C-3.15162271 0.07686885 -3.15162271 0.07686885 0 0 Z M-3.5625 17.0625 C-5.07105339 20.6631459 -6.56785824 24.26855959 -8.0625 27.875 C-8.70638672 29.41124023 -8.70638672 29.41124023 -9.36328125 30.97851562 C-9.76933594 31.96142578 -10.17539063 32.94433594 -10.59375 33.95703125 C-10.97080078 34.86300049 -11.34785156 35.76896973 -11.73632812 36.70239258 C-12.72769913 39.11766525 -12.72769913 39.11766525 -12.5625 42.0625 C-6.6225 42.0625 -0.6825 42.0625 5.4375 42.0625 C2.7975 33.8125 0.1575 25.5625 -2.5625 17.0625 C-2.8925 17.0625 -3.2225 17.0625 -3.5625 17.0625 Z " fill="#EBDE8B" transform="translate(1779.5625,986.9375)"/>
<path d="M0 0 C0 -0.66 0 -1.32 0 -2 C1.32 -2 2.64 -2 4 -2 C4 3.94 4 9.88 4 16 C2.68 16 1.36 16 0 16 C-0.17015625 15.45730469 -0.3403125 14.91460938 -0.515625 14.35546875 C-2.4086373 8.66557093 -2.4086373 8.66557093 -7 5 C-12.12789443 3.29070186 -16.41244889 3.38261901 -21.375 5.3125 C-24.21698375 6.89220247 -24.21698375 6.89220247 -26 10 C-26.27923967 12.41287346 -26.27923967 12.41287346 -26.1875 15 C-26.18105469 15.86625 -26.17460938 16.7325 -26.16796875 17.625 C-26.08830437 20.14927465 -26.08830437 20.14927465 -25 23 C-21.40032741 24.92215527 -17.53152692 25.56621462 -13.56469727 26.34326172 C2.49877263 29.51405243 2.49877263 29.51405243 8 36.5625 C9.70391415 42.41970489 10.32531726 48.62944006 8.05078125 54.4140625 C4.13854995 61.00438274 -0.86089672 64.32283627 -8 67 C-17.74284033 69.33120767 -26.57867837 67.9751542 -36 65 C-36 59.39 -36 53.78 -36 48 C-34.68 48 -33.36 48 -32 48 C-31.76925781 48.68707031 -31.53851562 49.37414063 -31.30078125 50.08203125 C-29.35864123 55.73618836 -29.35864123 55.73618836 -25.4375 60.0625 C-20.13715075 62.10109587 -15.28187337 63.12704904 -9.8046875 61.24609375 C-6.08597063 59.49651294 -2.72605268 57.88361852 -1 54 C-0.61039726 49.90917126 -0.63853614 47.13602928 -1.875 43.25 C-6.73098972 38.10836382 -13.99099632 36.94505382 -20.6875 35.5625 C-25.97175348 34.38614675 -30.4409509 33.28364592 -34 29 C-37.20924552 23.23233498 -37.73593033 17.33315272 -36 11 C-32.8519207 4.7038414 -28.10805492 1.23149346 -21.6875 -1.3125 C-14.0611454 -2.73436272 -7.40430746 -2.19386888 0 0 Z " fill="#EBDE8C" transform="translate(738,989)"/>
<path d="M0 0 C0 -0.66 0 -1.32 0 -2 C1.32 -2 2.64 -2 4 -2 C4 3.94 4 9.88 4 16 C2.68 16 1.36 16 0 16 C-0.17015625 15.45730469 -0.3403125 14.91460938 -0.515625 14.35546875 C-2.4086373 8.66557093 -2.4086373 8.66557093 -7 5 C-12.12789443 3.29070186 -16.41244889 3.38261901 -21.375 5.3125 C-24.21698375 6.89220247 -24.21698375 6.89220247 -26 10 C-26.46644817 12.33707208 -26.46644817 12.33707208 -26.5 14.875 C-26.5515625 15.71804688 -26.603125 16.56109375 -26.65625 17.4296875 C-25.85838227 20.55466945 -24.42413509 22.01539501 -21.87207031 23.94189453 C-18.49437867 25.85098629 -14.91362815 26.36679214 -11.125 27 C-3.26373849 28.54074075 2.88751482 30.01212836 8 36.5625 C9.8166531 42.80724504 9.89419243 49.15962404 7.9375 55.375 C2.56810122 62.64966931 -4.09460437 66.51137617 -13 68 C-21.17543477 68.60905818 -28.23615329 67.56757135 -36 65 C-36.02709444 62.91673869 -36.04643873 60.83337559 -36.0625 58.75 C-36.07410156 57.58984375 -36.08570313 56.4296875 -36.09765625 55.234375 C-36.01782092 52.59022872 -35.78643778 50.50173909 -35 48 C-33.08984375 48.2265625 -33.08984375 48.2265625 -31 49 C-30.12890625 50.9609375 -30.12890625 50.9609375 -29.5625 53.375 C-28.4535523 57.22054864 -28.4535523 57.22054864 -25.5625 60 C-20.37254649 62.02534771 -15.34874867 63.18806708 -9.875 61.24609375 C-4.4350621 58.70156979 -4.4350621 58.70156979 -1 54 C-0.61039726 49.90917126 -0.63853614 47.13602928 -1.875 43.25 C-6.73663293 38.10238866 -14.05212086 36.92540677 -20.75 35.5 C-26.8131957 34.17323012 -30.86003886 32.9495368 -34.62109375 27.765625 C-37.3071927 22.37820842 -37.03227623 15.50236579 -35.34375 9.7734375 C-32.43033038 4.0721767 -27.48899388 1.00517061 -21.75 -1.3125 C-14.21647625 -2.69364602 -7.23025112 -2.57075595 0 0 Z " fill="#EBDE8C" transform="translate(499,989)"/>
<path d="M0 0 C8.58 0 17.16 0 26 0 C26 1.32 26 2.64 26 4 C23.69 4.33 21.38 4.66 19 5 C19.18792114 5.53204544 19.37584229 6.06409088 19.56945801 6.61225891 C21.52149061 12.14180069 23.46699336 17.67360812 25.40869141 23.20678711 C26.1345508 25.27248226 26.86208255 27.33759054 27.59130859 29.40209961 C28.63817777 32.36680462 29.67904752 35.33355656 30.71875 38.30078125 C31.04685669 39.2258699 31.37496338 40.15095856 31.7130127 41.1040802 C32.01332397 41.96474594 32.31363525 42.82541168 32.62304688 43.7121582 C32.88952026 44.46938675 33.15599365 45.2266153 33.43054199 46.00679016 C34 48 34 48 34 51 C34.66 51 35.32 51 36 51 C36.14477783 50.46157471 36.28955566 49.92314941 36.4387207 49.3684082 C37.97912742 43.93321998 39.8414609 38.66946025 41.91796875 33.41796875 C42.18151154 32.75072784 42.44505432 32.08348694 42.71658325 31.39602661 C43.81736115 28.61897118 44.92349148 25.84414823 46.0378418 23.07250977 C46.85953012 21.02388109 47.67062187 18.97130176 48.48046875 16.91796875 C48.96410889 15.70906982 49.44774902 14.5001709 49.94604492 13.25463867 C50.91943306 10.24879265 51.23775411 8.12176673 51 5 C49.02 4.67 47.04 4.34 45 4 C45 2.68 45 1.36 45 0 C52.26 0 59.52 0 67 0 C67 1.32 67 2.64 67 4 C65.453125 4.12375 65.453125 4.12375 63.875 4.25 C61.16675973 5.06166244 60.18598706 5.72701899 58.57714844 8.08837891 C53.83415203 17.84860316 50.11112574 27.94619069 46.375 38.125 C45.07251637 41.64925457 43.76676342 45.17229517 42.4609375 48.6953125 C42.00010773 49.94033539 42.00010773 49.94033539 41.52996826 51.21051025 C35.48361873 67.51638127 35.48361873 67.51638127 34 69 C32.33382885 69.04063832 30.66611905 69.042721 29 69 C26.42465951 61.55939568 23.85135328 54.1180912 21.28059578 46.67590237 C20.08665146 43.21970898 18.89202469 39.76375474 17.69580078 36.30834961 C16.54002434 32.96969761 15.3860896 29.63041419 14.23339462 26.2906971 C13.58216041 24.40539311 12.92905217 22.52073679 12.27590942 20.63609314 C10.37472992 15.1231031 8.51050726 9.63368616 7 4 C4.69 4 2.38 4 0 4 C0 2.68 0 1.36 0 0 Z " fill="#EBDE8C" transform="translate(265,989)"/>
<path d="M0 0 C19.47 0 38.94 0 59 0 C59 6.6 59 13.2 59 20 C57.68 20 56.36 20 55 20 C54.65388672 18.86111328 54.65388672 18.86111328 54.30078125 17.69921875 C53.97464844 16.70535156 53.64851562 15.71148438 53.3125 14.6875 C52.99925781 13.70136719 52.68601562 12.71523438 52.36328125 11.69921875 C50.99404535 8.39183984 50.99404535 8.39183984 46 6 C40.06 5.01 40.06 5.01 34 4 C34 23.47 34 42.94 34 63 C36.97 63 39.94 63 43 63 C43 64.32 43 65.64 43 67 C33.76 67 24.52 67 15 67 C15 65.68 15 64.36 15 63 C17.97 63 20.94 63 24 63 C24 43.53 24 24.06 24 4 C13.80672457 4.76791107 13.80672457 4.76791107 7 10 C5.74138441 13.28065375 4.80250017 16.5812188 4 20 C2.68 20 1.36 20 0 20 C0 13.4 0 6.8 0 0 Z " fill="#EBDE8C" transform="translate(544,989)"/>
<path d="M0 0 C19.47 0 38.94 0 59 0 C59 6.6 59 13.2 59 20 C57.68 19.67 56.36 19.34 55 19 C54.12890625 17.07421875 54.12890625 17.07421875 53.5625 14.6875 C52.65410801 11.7068388 52.02961338 10.03725554 50.0625 7.5625 C45.75911728 5.1727241 45.75911728 5.1727241 35 4 C35 23.47 35 42.94 35 63 C37.97 63 40.94 63 44 63 C44 64.32 44 65.64 44 67 C34.76 67 25.52 67 16 67 C16 65.68 16 64.36 16 63 C18.97 63 21.94 63 25 63 C25 43.53 25 24.06 25 4 C13.78003936 5.11658193 13.78003936 5.11658193 8 9 C6.55370957 11.68532831 6.55370957 11.68532831 5.6875 14.6875 C5.36136719 15.68136719 5.03523438 16.67523437 4.69921875 17.69921875 C4.46847656 18.45847656 4.23773437 19.21773437 4 20 C2.68 20 1.36 20 0 20 C0 13.4 0 6.8 0 0 Z " fill="#EBDE8B" transform="translate(1447,989)"/>
<path d="M0 0 C8.58 0 17.16 0 26 0 C26 1.32 26 2.64 26 4 C24.02 4.33 22.04 4.66 20 5 C20.62829712 6.16571533 20.62829712 6.16571533 21.26928711 7.35498047 C22.82193527 10.23603654 24.37431557 13.1172366 25.92651367 15.99853516 C26.5986066 17.24598897 27.27080651 18.49338514 27.94311523 19.74072266 C28.90897244 21.53272635 29.87444577 23.32493638 30.83984375 25.1171875 C31.42113037 26.19597168 32.00241699 27.27475586 32.60131836 28.38623047 C33.41913848 29.914522 34.22482199 31.44964397 35 33 C36.60520934 29.95888251 38.20897836 26.91700767 39.8125 23.875 C40.26431641 23.0190625 40.71613281 22.163125 41.18164062 21.28125 C42.06175192 19.6109658 42.93832033 17.93880913 43.81103516 16.26464844 C44.8138351 14.35459254 45.84691261 12.46047769 46.88671875 10.5703125 C48.3571035 7.95925545 48.3571035 7.95925545 47 5 C44.525 4.505 44.525 4.505 42 4 C42 2.68 42 1.36 42 0 C49.26 0 56.52 0 64 0 C64 1.32 64 2.64 64 4 C62.78441406 4.31195312 61.56882812 4.62390625 60.31640625 4.9453125 C54.84317031 7.01027539 53.28270416 10.77369885 50.9375 15.875 C50.09580274 17.6194815 49.25204809 19.36297181 48.40625 21.10546875 C48.00148438 21.95286621 47.59671875 22.80026367 47.1796875 23.67333984 C45.66089372 26.66880854 43.78673657 29.38711921 41.9375 32.1875 C36.81750839 41.39386989 37.90094635 52.74481228 38 63 C40.97 63 43.94 63 47 63 C47 64.32 47 65.64 47 67 C37.76 67 28.52 67 19 67 C19 65.68 19 64.36 19 63 C21.97 63 24.94 63 28 63 C29.19865575 44.79755621 24.60451327 33.00379818 14.77636719 17.79394531 C12.51610029 14.2389021 10.46598232 10.575909 8.43383789 6.88647461 C6.74305563 4.66194294 5.85329457 4.26980867 3.125 3.875 C1.578125 3.936875 1.578125 3.936875 0 4 C0 2.68 0 1.36 0 0 Z " fill="#EBDE8B" transform="translate(1833,989)"/>
<path d="M0 0 C19.47 0 38.94 0 59 0 C59 6.6 59 13.2 59 20 C57.68 20 56.36 20 55 20 C54.85304688 19.32453125 54.70609375 18.6490625 54.5546875 17.953125 C53.47847202 13.67300367 52.68566518 10.70324634 49.5625 7.5 C44.76677336 5.3190921 44.76677336 5.3190921 34 4 C34 23.47 34 42.94 34 63 C36.97 63 39.94 63 43 63 C43 64.32 43 65.64 43 67 C34.09 67 25.18 67 16 67 C16 65.68 16 64.36 16 63 C18.64 63 21.28 63 24 63 C24 43.53 24 24.06 24 4 C13.80672457 4.76791107 13.80672457 4.76791107 7 10 C5.74138441 13.28065375 4.80250017 16.5812188 4 20 C2.68 20 1.36 20 0 20 C0 13.4 0 6.8 0 0 Z " fill="#ECDE8C" transform="translate(1097,989)"/>
<path d="M0 0 C9.24 0 18.48 0 28 0 C28 1.32 28 2.64 28 4 C25.03 4 22.06 4 19 4 C19 23.47 19 42.94 19 63 C21.97 63 24.94 63 28 63 C28 64.32 28 65.64 28 67 C18.76 67 9.52 67 0 67 C0 65.68 0 64.36 0 63 C2.97 63 5.94 63 9 63 C9 43.53 9 24.06 9 4 C6.03 4 3.06 4 0 4 C0 2.68 0 1.36 0 0 Z " fill="#EBDE8B" transform="translate(100,989)"/>
<path d="M0 0 C8.51724138 4.5862069 8.51724138 4.5862069 11 8 C10.42348246 14.4193011 6.31892185 19.66271883 3 25 C2.57332031 25.68964844 2.14664063 26.37929687 1.70703125 27.08984375 C-1.01812872 31.19153504 -4.32315383 34.21820771 -8.0859375 37.375 C-10.17575933 39.10452854 -10.17575933 39.10452854 -12.625 41.625 C-14.47213229 43.47213229 -16.28231073 45.06429506 -18.3125 46.6875 C-19.199375 47.450625 -20.08625 48.21375 -21 49 C-21 49.66 -21 50.32 -21 51 C-24.40596465 50.36235365 -26.76013121 49.0508817 -29.625 47.125 C-30.40101563 46.61195313 -31.17703125 46.09890625 -31.9765625 45.5703125 C-34 44 -34 44 -36 41 C-33.93885782 39.56052003 -31.87615188 38.12337429 -29.8125 36.6875 C-29.23435547 36.28337891 -28.65621094 35.87925781 -28.06054688 35.46289062 C-25.49381474 33.67922931 -22.94816757 31.96959263 -20.25 30.38671875 C-10.28119834 24.24275245 -4.24483946 10.43523033 0 0 Z " fill="#D6C483" transform="translate(897,128)"/>
<path d="M0 0 C4.35446142 1.08861535 5.44273305 2.17869546 7.890625 5.8203125 C9.8335312 9.6377127 10.67311665 13.74273356 11 18 C10.67 18.66 10.34 19.32 10 20 C9.74346928 22.14060633 9.54273374 24.28811198 9.375 26.4375 C9.27960938 27.59121094 9.18421875 28.74492188 9.0859375 29.93359375 C8.82355782 33.04180765 8.82355782 33.04180765 10 36 C9.33757593 38.52767078 8.60917733 40.91613892 7.75 43.375 C7.53214844 44.035 7.31429688 44.695 7.08984375 45.375 C5.7794039 49.22202225 4.22958349 52.60316398 2 56 C1.34 55.67 0.68 55.34 0 55 C0 36.85 0 18.7 0 0 Z " fill="#B4985F" transform="translate(1127,92)"/>
<path d="M0 0 C2.60423592 -0.02697137 5.20819244 -0.04682489 7.8125 -0.0625 C8.55048828 -0.07087891 9.28847656 -0.07925781 10.04882812 -0.08789062 C13.29922068 -0.10259828 15.89404895 -0.03531702 19 1 C18.67 6.61 18.34 12.22 18 18 C15.81901042 17.21875 13.63802083 16.4375 11.45703125 15.65625 C8.61874938 14.78496247 8.61874938 14.78496247 4 15 C4.33 10.38 4.66 5.76 5 1 C3.35 1 1.7 1 0 1 C0 0.67 0 0.34 0 0 Z " fill="#EDE29A" transform="translate(1101,84)"/>
<path d="M0 0 C0.17471382 3.72857205 0.28098726 7.45608959 0.375 11.1875 C0.45041016 12.77014648 0.45041016 12.77014648 0.52734375 14.38476562 C0.67262308 22.06035694 0.67262308 22.06035694 -1.32714844 24.85400391 C-5.04020062 28 -5.04020062 28 -7 28 C-8.2403044 19.33463006 -8.77997932 9.76536992 -4 2 C-1 0 -1 0 0 0 Z " fill="#AA8B54" transform="translate(1091,95)"/>
<path d="M0 0 C3.125 -0.1875 3.125 -0.1875 6 0 C6.7585032 11.51239296 6.7585032 11.51239296 4.9921875 14.9765625 C3.6875 16.3125 3.6875 16.3125 1 18 C0.01 18 -0.98 18 -2 18 C-2.05397335 15.5622037 -2.09365616 13.12560315 -2.125 10.6875 C-2.14175781 9.99720703 -2.15851563 9.30691406 -2.17578125 8.59570312 C-2.21217794 4.82864604 -2.14378864 3.21568296 0 0 Z " fill="#DBCB88" transform="translate(1100,85)"/>
<path d="M0 0 C0 5.61 0 11.22 0 17 C-3.57844494 15.21077753 -5.5597889 14.07285842 -8 11 C-8 7.10868027 -5.22155039 4.02938689 -3 1 C-1 0 -1 0 0 0 Z " fill="#E6D993" transform="translate(1119,140)"/>
<path d="M0 0 C2.7865517 2.7865517 2.65662895 5.15424427 3 9 C2.67 9.66 2.34 10.32 2 11 C1.77141886 13.0374763 1.58975722 15.08040303 1.4375 17.125 C1.35371094 18.22070312 1.26992187 19.31640625 1.18359375 20.4453125 C1.12300781 21.28835937 1.06242187 22.13140625 1 23 C0.67 23 0.34 23 0 23 C0 15.41 0 7.82 0 0 Z " fill="#A3824C" transform="translate(1135,101)"/>
</svg>
